<svg xmlns="http://www.w3.org/2000/svg" xmlns:xlink="http://www.w3.org/1999/xlink" width="2506.489" height="1140.303" viewBox="0 0 2506.489 1140.303"><defs><linearGradient id="a" x1="0.5" x2="0.5" y2="1" gradientUnits="objectBoundingBox"><stop offset="0" stop-color="#e8f9ff"/><stop offset="1" stop-color="#fff"/></linearGradient><linearGradient id="b" x1="0.5" x2="0.5" y2="1" gradientUnits="objectBoundingBox"><stop offset="0" stop-color="#e4f7fe"/><stop offset="0.556" stop-color="#f5fcff"/><stop offset="1" stop-color="#d1e7ef"/></linearGradient><linearGradient id="c" x1="0.065" y1="0.746" x2="0.935" y2="0.254" gradientUnits="objectBoundingBox"><stop offset="0" stop-color="#d1e0f3"/><stop offset="1" stop-color="#f6f9fe"/></linearGradient><linearGradient id="d" x1="0.48" y1="-0.005" x2="0.52" y2="0.893" gradientUnits="objectBoundingBox"><stop offset="0" stop-color="#628be5"/><stop offset="1" stop-color="#a4cbf3"/></linearGradient></defs><g transform="translate(230.489 -3377)"><g transform="translate(-423.223 -280)"><g transform="translate(122.974 3657)"><rect width="2358" height="691.434" transform="translate(92.024)" fill="url(#a)"/><path d="M-7.826,2.257c602.391-150.335,1386.47,20.736,1865.468-36.288s0,411.606,0,411.606H-7.826S-610.217,152.591-7.826,2.257Z" transform="translate(345.315 762.728)" fill="url(#b)"/></g></g><g transform="translate(1230.887 3303.697)"><path d="M436.463,0C576.028,0,689.17,110.534,689.17,246.885S576.028,493.766,436.463,493.766s-252.7-110.534-252.7-246.881S296.9,0,436.463,0Z" transform="translate(275.579 144.261)" fill-rule="evenodd" fill="url(#c)"/><path d="M990.08,298.31h73.46v74.214H990.08Z" transform="translate(-239.52 -46.307)" fill="#1f224d" fill-rule="evenodd"/><path d="M1010,318.43h59.07v59.681H1010Z" transform="translate(-252.244 -59.16)" fill="#b6c9ea" fill-rule="evenodd"/><path d="M1040.34,339.17h5.309v44.7h-5.309Z" transform="translate(-271.627 -72.41)" fill="#1f224d" fill-rule="evenodd"/><path d="M1069.73,339.17h5.306v44.7h-5.306Z" transform="translate(-290.402 -72.41)" fill="#1f224d" fill-rule="evenodd"/><path d="M1099.12,339.17h5.306v44.7h-5.306Z" transform="translate(-309.176 -72.41)" fill="#1f224d" fill-rule="evenodd"/><path d="M1128.51,339.17h5.306v44.7h-5.306Z" transform="translate(-327.952 -72.41)" fill="#1f224d" fill-rule="evenodd"/><path d="M791.495,503.79H679.22V664.307H791.495Z" transform="translate(-40.934 -177.573)" fill="#1f224d" fill-rule="evenodd"/><path d="M782.711,531.85H679.22V674.178H782.711Z" transform="translate(-40.934 -195.499)" fill="#b6c9ea" fill-rule="evenodd"/><path d="M750.57,559.52h5.306v44.7H750.57Z" transform="translate(-86.515 -213.175)" fill="#1f224d" fill-rule="evenodd"/><path d="M779.96,559.52h5.306v44.7H779.96Z" transform="translate(-105.289 -213.175)" fill="#1f224d" fill-rule="evenodd"/><path d="M809.34,559.52h5.309v44.7H809.34Z" transform="translate(-124.058 -213.175)" fill="#1f224d" fill-rule="evenodd"/><path d="M838.73,559.52h5.309v44.7H838.73Z" transform="translate(-142.833 -213.175)" fill="#1f224d" fill-rule="evenodd"/><path d="M966.961,562.18H845.454L827.28,623.143l8.347,69.757,131.334.267Z" transform="translate(-135.518 -214.874)" fill="#ccd7ed" fill-rule="evenodd"/><path d="M1239.49,562.18h75.175l17.777,60.963-5.555,69.757-87.4.267Z" transform="translate(-398.848 -214.874)" fill="#ccd7ed" fill-rule="evenodd"/><path d="M1033,468.792v-33.73l-18.644-6.032-54.523,10.225c-9.726,9.846-23.617,12.5-29.179,29.537Z" transform="translate(-201.554 -129.814)" fill="#70b7cd" fill-rule="evenodd"/><path d="M246.437,562.18H121.673l-26.5,59.641c1.26,41.145,13.165,59.937,19.688,80.275h131.58Z" transform="translate(332.172 -214.874)" fill="#ccd7ed" fill-rule="evenodd"/><path d="M539.46,562.18h67.879l25.438,58.026c-.777,40.033-16.452,58.315-20.475,78.1H539.46Z" transform="translate(48.348 -214.874)" fill="#ccd7ed" fill-rule="evenodd"/><path d="M156.81,757.669s23.642,34.03,40.325,44.5c9.723,23.531,31.13,57.459,55.274,79.307,47.711,43.168,194.345,85.8,295.051,17.25S657.72,759.991,657.72,759.991s43.1,16.43,94.6-13.865c-18.933-21.96-51.078-36.63-83.265-21.483,10.586-22.068,18.514-42.131,8.289-72.423-37.129,18.926-37.866,52.634-36.349,88.228-59.829,5.3-317.957,12.807-484.184,17.221Z" transform="translate(292.795 -272.394)" fill="#3d7ab7" fill-rule="evenodd"/><path d="M177.18,788.792s23.549,31.545,49.857,41.271c8.946,20.255,23.2,44.869,44.9,64.5,45.1,40.805,179.121,85.779,280.059,18.488s113.1-143.043,110.74-141.541,45.772,15.469,89.318-4.222c-17.9-20.757-53.122-23.419-83.547-9.1,11.456-17.181,20.374-47.643,16.838-70.956-29.58,25.365-39.505,49.311-38.075,82.958-56.553,5.009-301.693,13.93-470.087,18.6h0Z" transform="translate(279.782 -294.759)" fill-rule="evenodd" fill="url(#d)"/><path d="M747.848,1178.79a14.768,14.768,0,1,1-14.768,14.768A14.767,14.767,0,0,1,747.848,1178.79Z" transform="translate(-75.341 -608.78)" fill="#1f224d" fill-rule="evenodd"/><path d="M773.273,1187.18a4.544,4.544,0,1,1-4.544,4.544A4.545,4.545,0,0,1,773.273,1187.18Z" transform="translate(-98.116 -614.14)" fill="#fff" fill-rule="evenodd"/><path d="M753.481,1198.3a1.911,1.911,0,1,1-1.911,1.911A1.912,1.912,0,0,1,753.481,1198.3Z" transform="translate(-87.153 -621.243)" fill="#fff" fill-rule="evenodd"/><path d="M601.634,1308.31s29.172,31.4,89.488,30.288c-14.613,4.638-102.53,15.74-180.783-28.482C566.3,1315.27,597.755,1310.094,601.634,1308.31Z" transform="translate(66.951 -691.521)" fill="#deecf9" fill-rule="evenodd"/><path d="M460.457,1281.95s46.682,13,108.779,3.536c.238,2.983,1.629,7.278-6.7,8.036s-57.69,7.693-85.487-.246S460.457,1281.95,460.457,1281.95Z" transform="translate(100.244 -674.681)" fill="#3d7ab7" fill-rule="evenodd"/><path d="M961.92,1343.322s24.235,31.429,74.218,29.157C1040.681,1357.332,999.406,1309.245,961.92,1343.322Z" transform="translate(-221.53 -706.253)" fill="#3d7ab7" fill-rule="evenodd"/><path d="M965.06,1337.3s27.366,25.615,65.867,28.54C1028.681,1352.256,993.986,1316.015,965.06,1337.3Z" transform="translate(-223.536 -705.857)" fill="#7bafe9" fill-rule="evenodd"/><path d="M0,1119.243l583.131-4.822c52.37-4.2-26.156-1.813-48.166-16.646-23,14.747-56.3,15.653-79.74-.145-22.714,14.566-56.22,16.137-79.466.477a65.306,65.306,0,0,1-69.8-.181c-22.313,14.956-56.13,16.282-79.65,1.116-22.021,14.754-56.542,16.18-79.726,1.235-21.6,14.476-56.878,17.058-79.415,2.528C43.352,1118.769,23.549,1113.02,0,1119.243Z" transform="translate(392.969 -553.951)" fill="#6296c9" fill-rule="evenodd"/><path d="M512.42,252.584,640.785,248.8l-43.543-10.221s13.819-7.195,6.624-14.01-21.392-1.517-21.392-1.517.376-14.01-18.554-11.738-14.014,20.45-14.014,20.45-15.711-12.309-20.825-3.977,5.681,13.064,5.681,13.064Z" transform="translate(65.622 9.43)" fill="#fff" fill-rule="evenodd"/><path d="M172.74,539.12H367.745v8.329H172.74Z" transform="translate(282.618 -200.143)" fill="#7b84ab" fill-rule="evenodd"/><path d="M892.71,539.12h195.009v8.329H892.71Z" transform="translate(-177.317 -200.143)" fill="#7b84ab" fill-rule="evenodd"/><path d="M513.99,549.6h9.2V688.389h-9.2Z" transform="translate(64.619 -206.838)" fill="#7b84ab" fill-rule="evenodd"/><path d="M1214.02,436.37h9.2V607.69h-9.2Z" transform="translate(-382.578 -134.504)" fill="#7b84ab" fill-rule="evenodd"/><path d="M207.081,401.86A131.773,131.773,0,1,1,75.31,533.631,131.769,131.769,0,0,1,207.081,401.86Zm0,14.386A117.385,117.385,0,1,1,89.7,533.631,117.387,117.387,0,0,1,207.081,416.246Z" transform="translate(344.859 -112.458)" fill="#1f224d" fill-rule="evenodd"/><path d="M929.6,401.86A131.773,131.773,0,1,1,797.83,533.631,131.769,131.769,0,0,1,929.6,401.86Zm0,14.386A117.385,117.385,0,1,1,812.219,533.631,117.386,117.386,0,0,1,929.6,416.246Z" transform="translate(-116.705 -112.458)" fill="#1f224d" fill-rule="evenodd"/><path d="M937.8,181.368s12.117-16.661,17.416-5.3c.867-1.521,11.431-12.955,13.7.675.665-10.6-7.509-11.019-13.038-5.79C952.243,165.3,944.995,162.623,937.8,181.368Z" transform="translate(-206.122 37.724)" fill="#1f224d" fill-rule="evenodd"/><path d="M788.14,93.66s9.73-13.382,13.988-4.258c.7-1.221,9.185-10.405,11.009.545.531-8.517-6.032-8.852-10.474-4.652-2.922-4.544-8.744-6.693-14.523,8.365Z" transform="translate(-110.515 91.919)" fill="#1f224d" fill-rule="evenodd"/><path d="M1272.726,255.584s-6.9-9.477-9.911-3.016c-.491-.863-6.5-7.368-7.794.386-.379-6.032,4.269-6.27,7.419-3.294C1264.51,246.442,1268.634,244.922,1272.726,255.584Z" transform="translate(-408.756 -13.708)" fill="#1f224d" fill-rule="evenodd"/><path d="M156.04,601.893a1.767,1.767,0,0,0,2,2h3.33V596.62h-1.333v1.94h-2a1.767,1.767,0,0,0-2,2Zm4,.665h-2a.589.589,0,0,1-.668-.665v-1.336a.589.589,0,0,1,.668-.665h2Zm7.393-.545a1.77,1.77,0,0,1-2,2H164.1a1.767,1.767,0,0,1-2-2v-1.575a1.767,1.767,0,0,1,2-2h1.333a1.769,1.769,0,0,1,2,2Zm-1.333,0v-1.575a.592.592,0,0,0-.668-.668H164.1a.589.589,0,0,0-.665.668v1.575a.589.589,0,0,0,.665.668h1.333A.592.592,0,0,0,166.1,602.012Zm7.39,1.878h-3.33a1.767,1.767,0,0,1-2-2v-1.336a1.767,1.767,0,0,1,2-2h3.33v1.333h-3.33a.589.589,0,0,0-.668.665v1.336a.589.589,0,0,0,.668.665h3.33Zm6.328,0h-1.9l-2.095-2h-.668v2h-1.333V596.62h1.333v3.937h.668l2.106-2h1.893l-2.727,2.666Zm5.27-2.12v-1.333a1.785,1.785,0,0,0-2.037-2h-1.38a1.785,1.785,0,0,0-2.037,2v1.455a1.767,1.767,0,0,0,2,2h3.211v-1.333h-3.211a.589.589,0,0,1-.668-.665v-.123Zm-4.121-1.333a.592.592,0,0,1,.668-.668h1.452a.592.592,0,0,1,.668.668Zm6.18,3.453v-4h2a.586.586,0,0,1,.665.665h1.333a1.764,1.764,0,0,0-2-2h-3.334v5.331Zm11.875,0v-4h2a.586.586,0,0,1,.665.665h1.333a1.764,1.764,0,0,0-2-2h-3.334v5.331Zm9.658-1.939a1.742,1.742,0,0,1-2,1.939h-1.333a1.764,1.764,0,0,1-2-2v-3.334h1.333v3.334a.594.594,0,0,0,.665.665h1.333a.6.6,0,0,0,.668-.665v-3.334h1.333Zm2.059,1.939v-4h2a.586.586,0,0,1,.665.665v3.334h1.333v-3.334a1.764,1.764,0,0,0-2-2H209.4v5.331Zm15.148-2.182h-4.363v-1.452h4.363Zm.726.184a1.767,1.767,0,0,0,2,2h3.33V596.62h-1.333v1.94h-2a1.767,1.767,0,0,0-2,2Zm4,.665h-2a.589.589,0,0,1-.668-.665v-1.336a.589.589,0,0,1,.668-.665h2Zm12.482-.849h-4.363v-1.452h4.363Zm6.18.061v-1.333a1.785,1.785,0,0,0-2.037-2h-1.38a1.785,1.785,0,0,0-2.037,2v1.455a1.766,1.766,0,0,0,2,2h3.211v-1.333h-3.211a.589.589,0,0,1-.668-.665v-.123Zm-4.121-1.333a.592.592,0,0,1,.668-.668h1.452a.592.592,0,0,1,.668.668ZM163.31,613.826a1.927,1.927,0,0,1-2.182,2.181H156.04v-7.27h5.089a1.927,1.927,0,0,1,2.182,2.181Zm-5.815.726h3.633a.643.643,0,0,0,.73-.726v-2.907a.643.643,0,0,0-.73-.726H157.5Zm13.811-.6a1.927,1.927,0,0,1-2.178,2.181h-2.911a1.928,1.928,0,0,1-2.178-2.181V610.8a1.925,1.925,0,0,1,2.178-2.178h2.911a1.925,1.925,0,0,1,2.178,2.178Zm-1.452,0V610.8a.642.642,0,0,0-.726-.726h-2.911a.642.642,0,0,0-.726.726v3.153a.642.642,0,0,0,.726.726h2.911A.642.642,0,0,0,169.855,613.949Zm9.452,2.059h-5.089a1.927,1.927,0,0,1-2.181-2.181v-2.908a1.927,1.927,0,0,1,2.181-2.181h5.089v1.456h-5.089a.644.644,0,0,0-.73.726v2.908a.644.644,0,0,0,.73.726h5.089v1.456Zm8,0H185.45l-2.326-2.907h-1.636v2.907h-1.456v-7.27h1.456v2.908h1.636l2.326-2.908H187.3l-2.907,3.633Zm7.635-5.815H189.12v1.452h4.363V613.1H189.12v1.452h5.819v1.456h-7.27v-7.271h7.27v1.456Zm8,.726v.726a1.927,1.927,0,0,1-2.181,2.182l2.181,2.181h-2.062l-2.178-2.181H197.12v2.181h-1.456v-7.27h5.089a1.927,1.927,0,0,1,2.181,2.181Zm-1.456,0a.642.642,0,0,0-.726-.726H197.12v2.178h3.633a.642.642,0,0,0,.726-.726Zm8,6.545h-5.818v-1.456h5.818Zm8-1.456H216.02V613.1h-4.363v2.907h-1.452v-7.27h1.452v2.908h4.363v-2.908h1.456Zm8-2.059a1.929,1.929,0,0,1-2.181,2.181h-2.907a1.929,1.929,0,0,1-2.182-2.181V610.8a1.926,1.926,0,0,1,2.182-2.178h2.907a1.926,1.926,0,0,1,2.181,2.178Zm-1.456,0V610.8a.642.642,0,0,0-.726-.726h-2.907a.642.642,0,0,0-.726.726v3.153a.642.642,0,0,0,.726.726h2.907A.642.642,0,0,0,224.017,613.949Zm9.452-.123a1.927,1.927,0,0,1-2.182,2.181h-4.724v-1.456h4.724a.726.726,0,1,0,0-1.452H228.38a2.181,2.181,0,1,1,0-4.363h4.728v1.456H228.38a.726.726,0,0,0,0,1.452h2.907A1.927,1.927,0,0,1,233.469,613.826Zm8-3.633h-2.911v5.815h-1.452v-5.815H234.2v-1.456h7.27Zm6.541,1.452h-5.815v-1.452h5.815Zm0,2.907h-5.815V613.1h5.815Zm6.061-.206a1.476,1.476,0,0,1-1.661,1.661H249.1v-1.333h3.308a.291.291,0,0,0,.329-.329.3.3,0,0,0-.329-.34H250.4a1.487,1.487,0,0,1-1.658-1.694,1.456,1.456,0,0,1,1.658-1.636h3.308v1.333H250.4a.293.293,0,0,0-.325.325c.007.228.116.34.325.34h2.012A1.475,1.475,0,0,1,254.07,614.346Zm6.057,0a1.475,1.475,0,0,1-1.661,1.661h-3.3v-1.333h3.3a.289.289,0,0,0,.329-.329.3.3,0,0,0-.329-.34h-2.008a1.488,1.488,0,0,1-1.661-1.694,1.457,1.457,0,0,1,1.661-1.636h3.3v1.333h-3.3a.294.294,0,0,0-.329.325c.007.228.116.34.329.34h2.008A1.474,1.474,0,0,1,260.127,614.346Zm2.059,1.661v-4h2a.586.586,0,0,1,.665.665v3.333h1.336v-3.333a1.767,1.767,0,0,0-2-2h-2v-1.94h-1.333v7.27Zm6.18-2.907h-1.452v-1.455h1.452Zm0,2.907h-1.452v-1.456h1.452Zm8-7.27h-1.82l-5.45,7.27h1.817ZM163.31,620.855h-1.817l-5.454,7.271h1.82l5.45-7.271Zm3.637,7.271h-1.456v-5.818H164.04v-1.452h2.907Zm2.181,0h-1.456V626.67h1.456Zm8-5.089a1.929,1.929,0,0,1-2.181,2.181h-2.181a1.283,1.283,0,0,0-1.452,1.452h5.815v1.456h-7.27V626.67a2.569,2.569,0,0,1,2.907-2.908h2.181a.728.728,0,0,0,0-1.455h-4.363v-1.452h4.363A1.927,1.927,0,0,1,177.125,623.036Zm2.181,5.089h-1.455V626.67h1.455Zm7.574-3.637a3.326,3.326,0,0,1,.423,1.7q0,1.94-2.182,1.939h-2.907a1.927,1.927,0,0,1-2.181-2.181h1.456a.642.642,0,0,0,.726.726h2.907a.726.726,0,0,0,0-1.452H182.94v-1.456h2.181a.728.728,0,0,0,0-1.455h-2.907a.644.644,0,0,0-.726.73h-1.456a1.927,1.927,0,0,1,2.181-2.182h3.211q1.88,0,1.878,2.182A2.864,2.864,0,0,1,186.881,624.488Zm2.6,3.637h-1.456V626.67h1.456Zm4.688-1.456h-1.452v1.456h-1.466V626.67H186.9v-1.452l4.363-4.363h1.456v4.363h1.452Zm-2.907-1.452v-2.3l-2.3,2.3Zm5.089,0H194.9v-1.456h1.452Zm0,2.908H194.9V626.67h1.452Zm8-5.089a1.929,1.929,0,0,1-2.182,2.181h-2.178a1.285,1.285,0,0,0-1.456,1.452h5.815v1.456h-7.27V626.67a2.571,2.571,0,0,1,2.911-2.908h2.178a.728.728,0,1,0,0-1.455H197.81v-1.452h4.359a1.927,1.927,0,0,1,2.182,2.182Zm8,0a1.93,1.93,0,0,1-2.182,2.181h-2.181a1.286,1.286,0,0,0-1.456,1.452h5.819v1.456h-7.27V626.67a2.569,2.569,0,0,1,2.907-2.908h2.182a.728.728,0,0,0,0-1.455h-4.363v-1.452h4.363a1.929,1.929,0,0,1,2.182,2.182Zm6.783-2.182h1.82l5.45,7.271h-1.817ZM172.52,638.061h-4.363v-1.456h4.363Zm4.713,2.182,2.665-5.335h-1.492l-1.828,3.7-1.842-3.7h-1.492l2.665,5.335Zm-13.923,9.936a1.926,1.926,0,0,1-2.182,2.178H160.4v1.08h-1.456v-1.08H156.4V650.9h4.724a.728.728,0,1,0,0-1.456H157.8q-1.761,0-1.759-2.181t1.759-2.178h1.149v-1.069H160.4v1.069h2.546v1.452h-4.728a.728.728,0,0,0,0,1.456h2.907A1.927,1.927,0,0,1,163.31,650.178Zm8-2.911V648a1.927,1.927,0,0,1-2.178,2.181h-3.637v2.178H164.04V645.09h5.089A1.925,1.925,0,0,1,171.307,647.268Zm-1.452,0a.642.642,0,0,0-.726-.726h-3.637v2.181h3.637a.642.642,0,0,0,.726-.726v-.73Zm12.359-2.178-2.145,7.267h-1.528l-1.416-4.724-1.419,4.724h-1.524l-2.145-7.267h1.528l1.38,4.724,1.416-4.724h1.528l1.419,4.724,1.38-4.724Zm7.632,5.089a1.925,1.925,0,0,1-2.178,2.178h-5.089V645.09h5.089a1.925,1.925,0,0,1,2.178,2.178v2.911Zm-5.815.726h3.637a.642.642,0,0,0,.726-.726v-2.911a.642.642,0,0,0-.726-.726h-3.637Zm13.389-5.815H195.6l-5.454,7.267h1.82Zm4.619,5.147V648.9a1.783,1.783,0,0,0-2.037-2h-1.383a1.782,1.782,0,0,0-2.033,2v1.455a1.764,1.764,0,0,0,2,2h3.211v-1.329h-3.211a.589.589,0,0,1-.665-.668v-.123Zm-4.121-1.333a.586.586,0,0,1,.665-.665h1.456a.586.586,0,0,1,.665.665Zm10.178,3.453v-3.33a1.77,1.77,0,0,0-2-2h-3.088v1.333H206.1a.587.587,0,0,1,.668.657v.011h-2.326a1.462,1.462,0,0,0-1.672,1.636,1.487,1.487,0,0,0,1.672,1.694Zm-4-1.672c0-.217.112-.325.34-.325h2.326v.668h-2.326A.3.3,0,0,1,204.1,650.684Zm4.724-.325a1.767,1.767,0,0,0,2,2h3.33V645.09H212.82v1.936h-2a1.77,1.77,0,0,0-2,2Zm4,.668h-2a.592.592,0,0,1-.668-.668v-1.333a.592.592,0,0,1,.668-.668h2v2.669Zm7.393-.545a1.768,1.768,0,0,1-2,2H216.88a1.766,1.766,0,0,1-2-2V648.9a1.764,1.764,0,0,1,2-2h1.333a1.767,1.767,0,0,1,2,2Zm-1.333,0V648.9a.589.589,0,0,0-.668-.665H216.88a.586.586,0,0,0-.665.665v1.578a.587.587,0,0,0,.665.665h1.333A.589.589,0,0,0,218.881,650.482Zm3.391,1.874v-4h.668a.589.589,0,0,1,.665.668v3.33h1.333v-3.319a.6.6,0,0,1,.668-.679.589.589,0,0,1,.665.668v3.33H227.6v-3.33a1.767,1.767,0,0,0-2-2c-.116,0-.217,0-.3.007a1.288,1.288,0,0,0-.278.043,1.886,1.886,0,0,0-.321.119c-.119.058-.26.134-.43.231-.17-.1-.314-.173-.43-.231a2.142,2.142,0,0,0-.321-.119,1.32,1.32,0,0,0-.282-.043c-.087,0-.188-.007-.3-.007h-2v5.331Zm11.391-1.874a1.768,1.768,0,0,1-2,2H230.33a1.768,1.768,0,0,1-2-2V648.9a1.767,1.767,0,0,1,2-2h1.333a1.767,1.767,0,0,1,2,2Zm-1.333,0V648.9a.589.589,0,0,0-.668-.665H230.33a.589.589,0,0,0-.668.665v1.578a.589.589,0,0,0,.668.665h1.333A.589.589,0,0,0,232.331,650.482Zm3.088,1.874h-1.456V650.9h1.456Zm1.456,2.669h.618a2.351,2.351,0,0,0,2.095-1.564l.545-1.105,2.665-5.331H241.31l-1.831,3.7-1.842-3.7h-1.492l2.557,5.114-.386.8c-.34.5-.618.748-.838.748h-.6v1.336Zm7.621-2.669v-4h.665a.592.592,0,0,1,.668.668v3.33h1.333v-3.319a.666.666,0,1,1,1.333-.011v3.33h1.333v-3.33a1.77,1.77,0,0,0-2-2c-.112,0-.213,0-.3.007a1.32,1.32,0,0,0-.282.043,1.978,1.978,0,0,0-.318.119c-.119.058-.264.134-.433.231-.17-.1-.311-.173-.43-.231a1.887,1.887,0,0,0-.321-.119,1.255,1.255,0,0,0-.278-.043c-.087,0-.188-.007-.3-.007h-2v5.331Zm7.39,0V645.09h-1.333v7.267Zm2.182-2.908h-1.452V648h1.452Zm0,2.908h-1.452V650.9h1.452Zm8-7.267h-1.817l-5.454,7.267h1.82Zm4.619,5.147V648.9a1.783,1.783,0,0,0-2.037-2h-1.383a1.782,1.782,0,0,0-2.033,2v1.455a1.766,1.766,0,0,0,2,2h3.207v-1.329h-3.207a.59.59,0,0,1-.668-.668v-.123Zm-4.121-1.333a.588.588,0,0,1,.668-.665h1.452a.589.589,0,0,1,.668.665Zm4.847-.545h.726v4h1.333v-4h.726v-1.333h-.726V645.09h-1.333v1.936h-.726Zm8.845,4H272.92a1.764,1.764,0,0,1-2-2v-1.333a1.767,1.767,0,0,1,2-2h3.334v1.333H272.92a.589.589,0,0,0-.665.668v1.333a.589.589,0,0,0,.665.668h3.334ZM163.31,657.207h-1.817l-5.454,7.267h1.82l5.45-7.267Zm4.616,5.147v-1.333a1.78,1.78,0,0,0-2.033-2H164.51a1.781,1.781,0,0,0-2.033,2v1.456a1.764,1.764,0,0,0,2,2h3.211v-1.333h-3.211a.586.586,0,0,1-.665-.665v-.123Zm-4.117-1.333a.586.586,0,0,1,.665-.664h1.456a.586.586,0,0,1,.665.664Zm10.178,3.453v-3.33a1.77,1.77,0,0,0-2-2H168.9v1.333h3.088a.587.587,0,0,1,.668.657v.011h-2.326a1.462,1.462,0,0,0-1.672,1.636,1.487,1.487,0,0,0,1.672,1.694h3.659Zm-4-1.672c0-.217.112-.325.34-.325h2.326v.665h-2.326A.3.3,0,0,1,169.989,662.8Zm4.724-.325a1.767,1.767,0,0,0,2,2h3.33v-7.267h-1.333v1.936h-2a1.77,1.77,0,0,0-2,2Zm4,.665h-2a.589.589,0,0,1-.668-.665v-1.333a.592.592,0,0,1,.668-.668h2Zm7.393-.545a1.77,1.77,0,0,1-2,2h-1.333a1.767,1.767,0,0,1-2-2v-1.575a1.764,1.764,0,0,1,2-2H184.1a1.767,1.767,0,0,1,2,2Zm-1.333,0v-1.575a.589.589,0,0,0-.668-.664h-1.333a.586.586,0,0,0-.665.664V662.6a.589.589,0,0,0,.665.668H184.1A.591.591,0,0,0,184.771,662.6Zm3.391,1.878v-4h.668a.589.589,0,0,1,.665.668v3.33h1.333v-3.319a.6.6,0,0,1,.668-.679.589.589,0,0,1,.665.668v3.33h1.333v-3.33a1.767,1.767,0,0,0-2-2c-.116,0-.217,0-.3.007a1.277,1.277,0,0,0-.278.043,1.625,1.625,0,0,0-.321.119c-.119.058-.26.134-.43.231-.17-.1-.314-.173-.433-.231a1.687,1.687,0,0,0-.318-.119,1.343,1.343,0,0,0-.282-.043c-.087,0-.188-.007-.3-.007h-2v5.331h1.333Zm11.391-1.878a1.77,1.77,0,0,1-2,2h-1.333a1.77,1.77,0,0,1-2-2v-1.575a1.767,1.767,0,0,1,2-2h1.333a1.767,1.767,0,0,1,2,2Zm-1.336,0v-1.575a.586.586,0,0,0-.665-.664h-1.333a.589.589,0,0,0-.668.664V662.6a.591.591,0,0,0,.668.668h1.333A.589.589,0,0,0,198.218,662.6Zm3.092,1.878h-1.456v-1.452h1.456Zm1.456,2.666h.618a2.347,2.347,0,0,0,2.095-1.56l.545-1.105,2.665-5.331H207.2l-1.828,3.7-1.842-3.7h-1.492l2.557,5.114-.386.8c-.34.5-.618.748-.838.748h-.6v1.333Zm7.621-2.666v-4h.665a.592.592,0,0,1,.668.668v3.33h1.333v-3.319a.666.666,0,1,1,1.333-.011v3.33h1.333v-3.33a1.77,1.77,0,0,0-2-2c-.112,0-.213,0-.3.007a1.344,1.344,0,0,0-.282.043,1.809,1.809,0,0,0-.321.119c-.116.058-.26.134-.43.231-.17-.1-.311-.173-.43-.231a1.625,1.625,0,0,0-.321-.119,1.277,1.277,0,0,0-.278-.043c-.087,0-.188-.007-.3-.007h-2v5.331Zm7.39,0v-7.267h-1.333v7.267Zm6.786-7.267h1.817l5.454,7.267h-1.817Zm-52.042,17.2h-4.363v-1.452h4.363Zm5.089,0h-4.363v-1.452h4.363Zm2.059,2.181v-4h2a.589.589,0,0,1,.665.668h1.333a1.767,1.767,0,0,0-2-2h-3.334v5.331Zm9.781-2.12v-1.333a1.785,1.785,0,0,0-2.037-2h-1.38a1.785,1.785,0,0,0-2.037,2v1.455a1.766,1.766,0,0,0,2,2H189.2v-1.333H186a.589.589,0,0,1-.668-.665v-.123h4.121Zm-4.121-1.333a.589.589,0,0,1,.668-.665h1.452a.589.589,0,0,1,.668.665Zm10.178,1.8a1.472,1.472,0,0,1-1.661,1.658h-3.3v-1.333h3.3a.288.288,0,0,0,.329-.325c0-.228-.108-.34-.329-.34h-2.012a1.491,1.491,0,0,1-1.658-1.7,1.456,1.456,0,0,1,1.658-1.636h3.308v1.333h-3.308a.294.294,0,0,0-.325.329c.007.224.116.34.325.34h2.012A1.472,1.472,0,0,1,195.506,674.933Zm.726-2.34h.73v4h1.333v-4h.726V671.26h-.726v-1.94h-1.333v1.94h-.73Zm8.845,4v-3.33a1.767,1.767,0,0,0-2-2h-3.092v1.333h3.092a.582.582,0,0,1,.665.654v.014h-2.326a1.461,1.461,0,0,0-1.672,1.633,1.488,1.488,0,0,0,1.672,1.7Zm-4-1.672c0-.217.116-.325.34-.325h2.326v.665h-2.326A.3.3,0,0,1,201.078,674.919Zm6.061,1.672v-4h2a.592.592,0,0,1,.668.668h1.333a1.77,1.77,0,0,0-2-2h-3.33v5.331Zm4.251-4h.73v4h1.333v-4h.726V671.26h-.726v-1.94H212.12v1.94h-.73Zm14.906,2.059a1.742,1.742,0,0,1-2,1.939h-1.333a1.764,1.764,0,0,1-2-2V671.26H222.3v3.333a.594.594,0,0,0,.665.665h1.333a.6.6,0,0,0,.668-.665V671.26H226.3Zm2.059,1.939v-4h2a.589.589,0,0,1,.665.668v3.33h1.333v-3.33a1.767,1.767,0,0,0-2-2h-3.334v5.331Zm6.057,0v-7.271h-1.333v7.271Zm6.18-2.12v-1.333a1.783,1.783,0,0,0-2.033-2h-1.383a1.784,1.784,0,0,0-2.033,2v1.455a1.764,1.764,0,0,0,2,2h3.211v-1.333h-3.211a.586.586,0,0,1-.665-.665v-.123Zm-4.117-1.333a.586.586,0,0,1,.665-.665h1.456a.586.586,0,0,1,.665.665Zm10.178,1.8a1.472,1.472,0,0,1-1.661,1.658h-3.308v-1.333h3.308a.288.288,0,0,0,.329-.325c0-.228-.108-.34-.329-.34h-2.012a1.491,1.491,0,0,1-1.658-1.7,1.456,1.456,0,0,1,1.658-1.636h3.308v1.333h-3.308a.294.294,0,0,0-.325.329c.007.224.116.34.325.34h2.012A1.472,1.472,0,0,1,246.651,674.933Zm6.057,0a1.471,1.471,0,0,1-1.658,1.658h-3.308v-1.333h3.308a.287.287,0,0,0,.325-.325c0-.228-.108-.34-.325-.34h-2.012a1.492,1.492,0,0,1-1.661-1.7,1.457,1.457,0,0,1,1.661-1.636h3.308v1.333h-3.308a.3.3,0,0,0-.329.329c.007.224.119.34.329.34h2.012A1.471,1.471,0,0,1,252.708,674.933Zm5.089-.524h-4.359v-1.452H257.8Zm-96.426,12.641a1.471,1.471,0,0,1-1.658,1.658H156.4v-1.333h3.308a.287.287,0,0,0,.325-.325c0-.228-.108-.343-.325-.343H157.7a1.489,1.489,0,0,1-1.661-1.694,1.458,1.458,0,0,1,1.661-1.636h3.308v1.333H157.7c-.209,0-.318.108-.329.329.011.224.119.339.329.339h2.012A1.471,1.471,0,0,1,161.371,687.051Zm.73-2.34h.726v4h1.333v-4h.726v-1.333h-.726v-1.94h-1.333v1.94H162.1Zm8.845,2.12a1.769,1.769,0,0,1-2,2h-1.333a1.767,1.767,0,0,1-2-2v-1.575a1.767,1.767,0,0,1,2-2h1.333a1.769,1.769,0,0,1,2,2Zm-1.333,0v-1.575a.592.592,0,0,0-.668-.668h-1.333a.589.589,0,0,0-.665.668v1.575a.589.589,0,0,0,.665.668h1.333A.592.592,0,0,0,169.613,686.831Zm7.39-1.452a1.766,1.766,0,0,0-2-2h-3.334v8H173v-2.666h1.976a1.778,1.778,0,0,0,2.023-2v-1.329Zm-4-.668h2a.589.589,0,0,1,.665.668v1.329a.589.589,0,0,1-.665.668h-2Zm10.059.668a1.768,1.768,0,0,0-2-2h-3.334v8h1.333v-2.666h1.976a1.779,1.779,0,0,0,2.026-2Zm-4-.668h2a.592.592,0,0,1,.668.668v1.329a.592.592,0,0,1-.668.668h-2Zm10.182,1.878v-1.333a1.785,1.785,0,0,0-2.037-2h-1.383a1.784,1.784,0,0,0-2.033,2v1.452a1.766,1.766,0,0,0,2,2H189v-1.333h-3.211a.589.589,0,0,1-.665-.668v-.119Zm-4.121-1.333a.589.589,0,0,1,.665-.668h1.456a.589.589,0,0,1,.665.668Zm4.847,1.452a1.766,1.766,0,0,0,2,2H195.3v-7.27h-1.333v1.94h-2a1.766,1.766,0,0,0-2,2v1.329Zm4,.668h-2a.589.589,0,0,1-.665-.668v-1.329a.589.589,0,0,1,.665-.668h2v2.665Zm8.119-5.938H203.9l5.454,7.27h-1.82ZM172.52,698.645h-4.363v-1.456h4.363Zm6.057-1.152a1.764,1.764,0,0,0-2-2h-3.334v8h1.333v-2.666h1.976a1.778,1.778,0,0,0,2.023-2Zm-4-.664h2a.586.586,0,0,1,.665.664v1.333a.589.589,0,0,1-.665.668h-2Zm12.966,4a1.927,1.927,0,0,1-2.181-2.181h1.456a.642.642,0,0,0,.726.726h2.907a.726.726,0,0,0,0-1.452h-5.089v-4.363h6.92v1.456h-5.465v1.452h3.633a1.927,1.927,0,0,1,2.182,2.182h0a1.927,1.927,0,0,1-2.182,2.181Zm7.632,0A1.926,1.926,0,0,1,193,698.645h1.452a.642.642,0,0,0,.726.726h2.911a.726.726,0,0,0,0-1.452H193v-4.363h6.917v1.456h-5.465v1.452h3.637a1.929,1.929,0,0,1,2.182,2.182h0a1.929,1.929,0,0,1-2.182,2.181Zm7.635,0a1.927,1.927,0,0,1-2.181-2.181h1.456a.642.642,0,0,0,.726.726h2.907a.726.726,0,1,0,0-1.452h-5.089v-4.363h6.92v1.456h-5.465v1.452h3.633a1.927,1.927,0,0,1,2.182,2.182h0a1.927,1.927,0,0,1-2.182,2.181Zm7.635,0a1.927,1.927,0,0,1-2.182-2.181h1.452a.643.643,0,0,0,.73.726h2.907a.726.726,0,0,0,0-1.452h-5.089v-4.363h6.916v1.456h-5.465v1.452h3.637a1.929,1.929,0,0,1,2.182,2.182h0a1.929,1.929,0,0,1-2.182,2.181h-2.907Zm6.906-2.907H215.9v-1.456h1.456Zm0,2.907H215.9v-1.456h1.456Zm2.907,0a1.927,1.927,0,0,1-2.182-2.181h1.456a.642.642,0,0,0,.726.726h2.907a.726.726,0,1,0,0-1.452h-5.089v-4.363H225v1.456h-5.465v1.452h3.633a1.927,1.927,0,0,1,2.182,2.182h0a1.927,1.927,0,0,1-2.182,2.181Zm7.635,0a1.927,1.927,0,0,1-2.182-2.181h1.452a.643.643,0,0,0,.73.726H230.8a.726.726,0,0,0,0-1.452h-5.089v-4.363h6.916v1.456h-5.465v1.452H230.8a1.929,1.929,0,0,1,2.181,2.182h0a1.929,1.929,0,0,1-2.181,2.181H227.9Zm7.632,0a1.929,1.929,0,0,1-2.182-2.181H234.8a.642.642,0,0,0,.726.726h2.907a.726.726,0,1,0,0-1.452h-5.089v-4.363h6.92v1.456H234.8v1.452h3.633a1.927,1.927,0,0,1,2.181,2.182h0a1.927,1.927,0,0,1-2.181,2.181Zm7.635,0a1.927,1.927,0,0,1-2.182-2.181h1.456a.642.642,0,0,0,.726.726h2.907a.726.726,0,0,0,0-1.452h-5.089v-4.363h6.92v1.456h-5.465v1.452h3.633a1.927,1.927,0,0,1,2.181,2.182h0a1.927,1.927,0,0,1-2.181,2.181Zm11.511-7.27h1.817l5.454,7.27h-1.817Z" transform="translate(293.286 -236.875)" fill="#1f224d"/><path d="M575.86,601.893a1.765,1.765,0,0,0,2,2h3.334V596.62h-1.333v1.94h-2a1.764,1.764,0,0,0-2,2Zm4,.665h-2a.586.586,0,0,1-.665-.665v-1.336a.586.586,0,0,1,.665-.665h2Zm7.39-.545a1.767,1.767,0,0,1-2,2h-1.333a1.768,1.768,0,0,1-2-2v-1.575a1.768,1.768,0,0,1,2-2h1.333a1.767,1.767,0,0,1,2,2Zm-1.333,0v-1.575a.589.589,0,0,0-.665-.668h-1.333a.592.592,0,0,0-.668.668v1.575a.591.591,0,0,0,.668.668h1.333A.589.589,0,0,0,585.915,602.012Zm7.393,1.878h-3.334a1.767,1.767,0,0,1-2-2v-1.336a1.767,1.767,0,0,1,2-2h3.334v1.333h-3.334a.589.589,0,0,0-.668.665v1.336a.589.589,0,0,0,.668.665h3.334Zm6.324,0h-1.9l-2.095-2h-.668v2h-1.333V596.62h1.333v3.937h.668l2.106-2h1.893l-2.727,2.666Zm5.27-2.12v-1.333a1.784,1.784,0,0,0-2.033-2h-1.383a1.783,1.783,0,0,0-2.033,2v1.455a1.764,1.764,0,0,0,2,2h3.211v-1.333h-3.211a.586.586,0,0,1-.665-.665v-.123Zm-4.117-1.333a.589.589,0,0,1,.665-.668H602.9a.589.589,0,0,1,.664.668Zm6.176,3.453v-4h2a.589.589,0,0,1,.668.665h1.333a1.767,1.767,0,0,0-2-2h-3.334v5.331Zm11.875,0v-4h2a.586.586,0,0,1,.665.665h1.333a1.764,1.764,0,0,0-2-2H617.5v5.331Zm9.658-1.939a1.74,1.74,0,0,1-2,1.939h-1.333a1.767,1.767,0,0,1-2-2v-3.334H624.5v3.334a.6.6,0,0,0,.668.665H626.5a.594.594,0,0,0,.665-.665v-3.334h1.333Zm2.059,1.939v-4h2a.589.589,0,0,1,.668.665v3.334h1.333v-3.334a1.767,1.767,0,0,0-2-2H629.22v5.331Zm-50.333,9.936H575.86v-1.456h4.359Zm.729.18a1.766,1.766,0,0,0,2,2h3.334v-7.27h-1.333v1.94h-2a1.764,1.764,0,0,0-2,2Zm4,.668h-2a.589.589,0,0,1-.665-.668v-1.333a.586.586,0,0,1,.665-.665h2Zm12.478-.849h-4.363v-1.456h4.363Zm6.18.061v-1.333a1.784,1.784,0,0,0-2.033-2h-1.383a1.785,1.785,0,0,0-2.037,2v1.452a1.768,1.768,0,0,0,2,2h3.211v-1.333h-3.211a.592.592,0,0,1-.668-.668v-.119h4.121Zm-4.121-1.333a.592.592,0,0,1,.668-.668h1.456a.589.589,0,0,1,.665.668Zm-16.357,13.389a1.926,1.926,0,0,1-2.178,2.182H575.86v-7.271h5.089a1.926,1.926,0,0,1,2.178,2.182Zm-5.815.726h3.637a.642.642,0,0,0,.726-.726v-2.907a.644.644,0,0,0-.726-.73h-3.637Zm13.815-.6a1.927,1.927,0,0,1-2.181,2.178h-2.907a1.926,1.926,0,0,1-2.182-2.178v-3.153a1.929,1.929,0,0,1,2.182-2.182h2.907a1.93,1.93,0,0,1,2.181,2.182Zm-1.455,0v-3.153a.642.642,0,0,0-.726-.726h-2.907a.643.643,0,0,0-.73.726v3.153a.643.643,0,0,0,.73.726h2.907A.642.642,0,0,0,589.671,626.067Zm9.452,2.059h-5.089a1.927,1.927,0,0,1-2.182-2.181v-2.908a1.927,1.927,0,0,1,2.182-2.182h5.089v1.452h-5.089a.644.644,0,0,0-.726.73v2.908a.642.642,0,0,0,.726.726h5.089v1.455Zm8,0h-1.853l-2.326-2.907H601.3v2.907h-1.456v-7.271H601.3v2.908h1.636l2.326-2.908h1.853l-2.908,3.634Zm7.635-5.818H608.94v1.455H613.3v1.456H608.94v1.452h5.815v1.455h-7.271v-7.271h7.271v1.452Zm8,.73v.726a1.927,1.927,0,0,1-2.182,2.182l2.182,2.181h-2.059l-2.182-2.181h-1.575v2.181h-1.456v-7.271h5.089A1.927,1.927,0,0,1,622.751,623.036Zm-1.452,0a.647.647,0,0,0-.73-.73h-3.633v2.182h3.633a.644.644,0,0,0,.73-.726Zm8,6.541h-5.819v-1.452H629.3Zm8-1.452h-1.456v-2.907h-4.359v2.907h-1.456v-7.271h1.456v2.908h4.359v-2.908h1.456ZM583.127,638.18a1.926,1.926,0,0,1-2.178,2.181h-2.911a1.926,1.926,0,0,1-2.178-2.181v-3.149a1.928,1.928,0,0,1,2.178-2.181h2.911a1.928,1.928,0,0,1,2.178,2.181Zm-1.452,0v-3.149a.642.642,0,0,0-.726-.726h-2.911a.642.642,0,0,0-.726.726v3.149a.643.643,0,0,0,.726.73h2.911A.643.643,0,0,0,581.675,638.18Zm9.452-.119a1.93,1.93,0,0,1-2.181,2.181h-4.728v-1.456h4.728a.726.726,0,0,0,0-1.452h-2.907a2.181,2.181,0,1,1,0-4.363h4.724v1.452h-4.724a.728.728,0,1,0,0,1.456h2.907A1.929,1.929,0,0,1,591.127,638.061Zm8-3.637h-2.907v5.818H594.76v-5.818h-2.907v-1.452h7.27Zm6.544,1.456h-5.818v-1.456h5.818Zm0,2.907h-5.818v-1.452h5.818Zm6.057-.206a1.476,1.476,0,0,1-1.661,1.661h-3.3V638.91h3.3a.291.291,0,0,0,.329-.329c0-.228-.108-.34-.329-.34h-2.008a1.49,1.49,0,0,1-1.661-1.7,1.457,1.457,0,0,1,1.661-1.636h3.3v1.336h-3.3a.294.294,0,0,0-.329.325c.007.228.116.34.329.34h2.008A1.472,1.472,0,0,1,611.725,638.581Zm6.061,0a1.478,1.478,0,0,1-1.661,1.661h-3.308V638.91h3.308a.29.29,0,0,0,.325-.329c0-.228-.108-.34-.325-.34h-2.012a1.492,1.492,0,0,1-1.661-1.7,1.458,1.458,0,0,1,1.661-1.636h3.308v1.336h-3.308a.3.3,0,0,0-.329.325c.011.228.119.34.329.34h2.012A1.474,1.474,0,0,1,617.785,638.581Zm2.059,1.661v-4h2a.589.589,0,0,1,.668.665v3.334h1.333v-3.334a1.77,1.77,0,0,0-2-2h-2v-1.936h-1.333v7.271Zm6.18-2.908h-1.456V635.88h1.456Zm0,2.908h-1.456v-1.456h1.456Zm8-7.271H632.2l-5.454,7.271h1.817Zm8,0H640.2l-5.454,7.271h1.82Zm-63.249,19.384h-1.456v-5.815H575.86V645.09h2.907Zm2.181,0h-1.456V650.9h1.456Zm8-5.089a1.927,1.927,0,0,1-2.181,2.181h-2.182a1.286,1.286,0,0,0-1.452,1.456h5.815v1.452h-7.271V650.9A2.569,2.569,0,0,1,584.582,648h2.181a.728.728,0,0,0,0-1.456H582.4V645.09h4.363A1.926,1.926,0,0,1,588.945,647.268Zm2.181,5.089h-1.456V650.9h1.456Zm7.574-3.633a3.317,3.317,0,0,1,.422,1.7c0,1.293-.726,1.936-2.181,1.936h-2.907a1.926,1.926,0,0,1-2.182-2.178h1.456a.642.642,0,0,0,.726.726h2.907a.728.728,0,0,0,0-1.456H594.76V648h2.182a.728.728,0,0,0,0-1.456h-2.907a.642.642,0,0,0-.726.726h-1.456a1.926,1.926,0,0,1,2.182-2.178h3.211q1.88,0,1.878,2.178A2.867,2.867,0,0,1,598.7,648.723Zm2.6,3.633h-1.455V650.9H601.3Zm4.688-1.452h-1.452v1.452h-1.466V650.9h-4.352v-1.456l4.363-4.359h1.456v4.359h1.452Zm-2.908-1.456v-2.3l-2.3,2.3Zm5.089,0h-1.452V648h1.452Zm0,2.908h-1.452V650.9h1.452Zm8-5.089a1.927,1.927,0,0,1-2.182,2.181h-2.178a1.287,1.287,0,0,0-1.456,1.456h5.815v1.452H608.9V650.9A2.571,2.571,0,0,1,611.811,648h2.178a.728.728,0,1,0,0-1.456H609.63V645.09h4.359A1.926,1.926,0,0,1,616.171,647.268Zm8,0a1.929,1.929,0,0,1-2.181,2.181h-2.182a1.288,1.288,0,0,0-1.455,1.456h5.819v1.452H616.9V650.9A2.569,2.569,0,0,1,619.808,648h2.182a.728.728,0,0,0,0-1.456h-4.363V645.09h4.363A1.928,1.928,0,0,1,624.171,647.268Zm6.783-2.178h1.82l5.45,7.267h-1.817ZM592.337,662.3h-4.363V660.84h4.363Zm4.713,2.178,2.665-5.331h-1.488l-1.831,3.7-1.842-3.7h-1.492l2.665,5.331Zm-13.923,9.936a1.926,1.926,0,0,1-2.178,2.181h-.73v1.08h-1.452v-1.08h-2.546v-1.452h4.728a.728.728,0,0,0,0-1.456h-3.334q-1.755,0-1.755-2.181c0-1.452.585-2.182,1.755-2.182h1.152v-1.065h1.452v1.065h2.546v1.456h-4.728a.726.726,0,1,0,0,1.452h2.911A1.928,1.928,0,0,1,583.127,674.41Zm8-2.908v.726a1.929,1.929,0,0,1-2.182,2.182h-3.637v2.181h-1.452v-7.271h5.089A1.93,1.93,0,0,1,591.127,671.5Zm-1.456,0a.642.642,0,0,0-.726-.726h-3.637v2.181h3.637a.643.643,0,0,0,.726-.73Zm12.359-2.181-2.145,7.27h-1.524l-1.419-4.724-1.416,4.724H594l-2.145-7.27h1.528l1.38,4.728,1.419-4.728H597.7l1.419,4.728,1.38-4.728Zm7.635,5.089a1.929,1.929,0,0,1-2.182,2.181H602.4v-7.27h5.089a1.93,1.93,0,0,1,2.182,2.181Zm-5.819.73h3.637a.644.644,0,0,0,.726-.73V671.5a.642.642,0,0,0-.726-.726h-3.637Zm13.389-5.819H615.42l-5.45,7.271h1.817Zm4.619,5.15v-1.333a1.785,1.785,0,0,0-2.037-2h-1.38a1.785,1.785,0,0,0-2.037,2v1.456a1.767,1.767,0,0,0,2,2h3.211v-1.333H618.4a.589.589,0,0,1-.668-.665v-.123Zm-4.121-1.333a.589.589,0,0,1,.668-.665h1.452a.589.589,0,0,1,.668.665Zm10.178,3.453v-3.33a1.767,1.767,0,0,0-2-2h-3.092v1.333h3.092a.582.582,0,0,1,.665.654v.014h-2.326a1.461,1.461,0,0,0-1.672,1.633,1.488,1.488,0,0,0,1.672,1.7Zm-4-1.672c0-.217.112-.325.339-.325h2.326v.665h-2.326A.3.3,0,0,1,623.914,674.919Zm4.724-.325a1.767,1.767,0,0,0,2,2h3.334v-7.271h-1.336v1.94h-2a1.769,1.769,0,0,0-2,2Zm4,.665h-2a.589.589,0,0,1-.668-.665v-1.333a.591.591,0,0,1,.668-.668h2Zm7.393-.545a1.769,1.769,0,0,1-2,2H636.7a1.767,1.767,0,0,1-2-2v-1.575a1.767,1.767,0,0,1,2-2h1.333a1.769,1.769,0,0,1,2,2Zm-1.333,0v-1.575a.589.589,0,0,0-.668-.665H636.7a.587.587,0,0,0-.665.665v1.575a.589.589,0,0,0,.665.668h1.333A.592.592,0,0,0,638.7,674.713Zm-61.5,14v-4h.665a.592.592,0,0,1,.668.668v3.33h1.333v-3.319a.666.666,0,1,1,1.333-.011v3.33h1.333v-3.33a1.768,1.768,0,0,0-2-2c-.112,0-.213,0-.3.007a1.623,1.623,0,0,0-.278.04,1.747,1.747,0,0,0-.321.123c-.116.058-.26.134-.43.231-.17-.1-.314-.173-.43-.231a1.654,1.654,0,0,0-.322-.123,1.572,1.572,0,0,0-.278-.04c-.09,0-.191-.007-.3-.007h-2v5.331h1.333Zm11.388-1.878a1.767,1.767,0,0,1-2,2h-1.333a1.768,1.768,0,0,1-2-2v-1.575a1.768,1.768,0,0,1,2-2h1.333a1.767,1.767,0,0,1,2,2Zm-1.333,0v-1.575a.589.589,0,0,0-.665-.668h-1.333a.592.592,0,0,0-.668.668v1.575a.592.592,0,0,0,.668.668h1.333A.589.589,0,0,0,587.248,686.831Zm3.092,1.878h-1.456v-1.456h1.456Zm1.452,2.665h.618a2.349,2.349,0,0,0,2.1-1.564l.545-1.1,2.666-5.331h-1.492l-1.831,3.695-1.842-3.695h-1.488l2.557,5.114-.39.8c-.34.5-.618.751-.834.751h-.607Zm7.621-2.665v-4h.668a.589.589,0,0,1,.665.668v3.33h1.333v-3.319a.668.668,0,1,1,1.336-.011v3.33h1.329v-3.33a1.766,1.766,0,0,0-2-2c-.112,0-.213,0-.3.007a1.572,1.572,0,0,0-.278.04,1.652,1.652,0,0,0-.321.123c-.116.058-.26.134-.43.231-.17-.1-.314-.173-.43-.231a1.741,1.741,0,0,0-.321-.123,1.622,1.622,0,0,0-.278-.04c-.09,0-.191-.007-.3-.007h-2v5.331Zm7.393,0v-7.27h-1.333v7.27Zm2.181-2.907h-1.455v-1.455h1.455Zm0,2.907h-1.455v-1.456h1.455Zm8-7.27h-1.817l-5.454,7.27h1.817Zm4.616,5.15v-1.333a1.784,1.784,0,0,0-2.033-2h-1.383a1.785,1.785,0,0,0-2.037,2v1.452a1.768,1.768,0,0,0,2,2h3.211v-1.333h-3.211a.592.592,0,0,1-.668-.668v-.119Zm-4.121-1.333a.592.592,0,0,1,.668-.668H619.6a.589.589,0,0,1,.664.668Zm4.847-.545h.73v4h1.333v-4h.726v-1.333h-.726v-1.939h-1.333v1.939h-.73Zm8.845,4h-3.33a1.768,1.768,0,0,1-2-2v-1.329a1.768,1.768,0,0,1,2-2h3.33v1.333h-3.33a.592.592,0,0,0-.668.668v1.329a.592.592,0,0,0,.668.668h3.33Zm8-7.27h-1.82l-5.45,7.27h1.817Zm-57.86,17.268v-1.333a1.784,1.784,0,0,0-2.033-2h-1.383a1.783,1.783,0,0,0-2.033,2v1.452a1.767,1.767,0,0,0,2,2h3.211v-1.333h-3.211a.589.589,0,0,1-.665-.668v-.119Zm-4.117-1.333a.589.589,0,0,1,.665-.668h1.455a.589.589,0,0,1,.665.668Zm10.178,3.453v-3.334a1.767,1.767,0,0,0-2-2h-3.088v1.333h3.088a.584.584,0,0,1,.668.654v.011h-2.326a1.464,1.464,0,0,0-1.676,1.636,1.492,1.492,0,0,0,1.676,1.7Zm-4-1.672a.3.3,0,0,1,.343-.329h2.326v.668h-2.326A.3.3,0,0,1,583.369,699.154Zm4.728-.329a1.768,1.768,0,0,0,2,2h3.33v-7.271h-1.333v1.94h-2a1.766,1.766,0,0,0-2,2Zm4,.668h-2a.59.59,0,0,1-.668-.668v-1.333a.587.587,0,0,1,.668-.664h2Zm7.393-.545a1.767,1.767,0,0,1-2,2h-1.333a1.767,1.767,0,0,1-2-2v-1.575a1.769,1.769,0,0,1,2-2h1.333a1.769,1.769,0,0,1,2,2Zm-1.336,0v-1.575a.589.589,0,0,0-.664-.668h-1.333a.592.592,0,0,0-.668.668v1.575a.589.589,0,0,0,.668.665h1.333A.586.586,0,0,0,598.152,698.948Zm3.4,1.878v-4h.664a.589.589,0,0,1,.668.664v3.334h1.333v-3.319a.666.666,0,1,1,1.333-.014v3.334h1.333v-3.334a1.767,1.767,0,0,0-2-2c-.112,0-.213,0-.3,0a2.045,2.045,0,0,0-.282.043,1.827,1.827,0,0,0-.321.123c-.116.054-.26.134-.43.228-.17-.094-.311-.173-.43-.228a1.636,1.636,0,0,0-.321-.123,1.919,1.919,0,0,0-.278-.043c-.087,0-.188,0-.3,0h-2v5.331h1.333Zm11.388-1.878a1.764,1.764,0,0,1-2,2H609.6a1.767,1.767,0,0,1-2-2v-1.575a1.769,1.769,0,0,1,2-2h1.333a1.767,1.767,0,0,1,2,2Zm-1.333,0v-1.575a.589.589,0,0,0-.664-.668H609.6a.592.592,0,0,0-.668.668v1.575a.589.589,0,0,0,.668.665h1.333A.586.586,0,0,0,611.6,698.948Zm3.092,1.878h-1.456v-1.455h1.456Zm1.452,2.666h.618a2.346,2.346,0,0,0,2.1-1.564l.545-1.1,2.666-5.331h-1.492l-1.827,3.695-1.842-3.695H615.42l2.557,5.114-.386.8c-.34.5-.621.751-.838.751h-.607Zm7.624-2.666v-4h.665a.589.589,0,0,1,.668.664v3.334h1.333v-3.319a.666.666,0,1,1,1.333-.014v3.334H629.1v-3.334a1.767,1.767,0,0,0-2-2c-.112,0-.213,0-.3,0a2.083,2.083,0,0,0-.278.043,1.722,1.722,0,0,0-.321.123c-.115.054-.26.134-.43.228-.17-.094-.314-.173-.43-.228a1.634,1.634,0,0,0-.321-.123,2,2,0,0,0-.278-.043c-.09,0-.191,0-.3,0h-2v5.331Zm7.39,0v-7.271h-1.333v7.271Z" transform="translate(25.095 -236.875)" fill="#1f224d"/><path d="M262.352,488.38A100.522,100.522,0,1,1,161.83,588.9,100.523,100.523,0,0,1,262.352,488.38Z" transform="translate(289.588 -167.729)" fill="#ccf" fill-rule="evenodd" opacity="0.3"/><path d="M876.941,598.69v-3.33a1.77,1.77,0,0,0-2-2h-3.088v1.333h3.088a.586.586,0,0,1,.668.654v.015h-2.326A1.462,1.462,0,0,0,871.61,597a1.487,1.487,0,0,0,1.672,1.694h3.659Zm-4-1.672c0-.217.112-.325.339-.325h2.326v.665h-2.326A.3.3,0,0,1,872.943,597.018ZM883,598.69h-3.33a1.767,1.767,0,0,1-2-2V595.36a1.77,1.77,0,0,1,2-2H883v1.333h-3.33a.592.592,0,0,0-.668.668v1.333a.589.589,0,0,0,.668.665H883Zm.729-4h.726v4h1.333v-4h.726V593.36h-.726v-1.94h-1.333v1.94h-.726Zm4.847,4h-1.333V593.36h1.333Zm0-5.938h-1.333V591.42h1.333Zm6.057,4.06a1.769,1.769,0,0,1-2,2H891.3a1.768,1.768,0,0,1-2-2v-1.575a1.766,1.766,0,0,1,2-2h1.333a1.766,1.766,0,0,1,2,2Zm-1.333,0v-1.575a.587.587,0,0,0-.665-.665H891.3a.588.588,0,0,0-.668.665v1.575a.59.59,0,0,0,.668.668h1.333A.589.589,0,0,0,893.3,596.812Zm3.392,1.878v-4h2a.589.589,0,0,1,.665.668v3.33h1.336v-3.33a1.769,1.769,0,0,0-2-2h-3.334v5.331Zm10.059-1.658a1.472,1.472,0,0,1-1.661,1.658h-3.308v-1.333h3.308a.289.289,0,0,0,.329-.325c0-.228-.108-.339-.329-.339h-2.012a1.49,1.49,0,0,1-1.658-1.7,1.456,1.456,0,0,1,1.658-1.636h3.308v1.333h-3.308c-.209,0-.318.108-.325.329s.116.339.325.339h2.012a1.472,1.472,0,0,1,1.661,1.672Zm2.181-1.25h-1.455v-1.452h1.455Zm0,2.908h-1.455v-1.452h1.455Zm-20.843,9.936h-4.359v-1.452h4.359Zm8.119,2.182v-4h2a.589.589,0,0,1,.665.668v3.33H900.2v-3.33a1.767,1.767,0,0,0-2-2h-3.334v5.331Zm10.059,0v-3.33a1.77,1.77,0,0,0-2-2h-3.088v1.333h3.088a.584.584,0,0,1,.668.654v.014h-2.326a1.462,1.462,0,0,0-1.672,1.636,1.488,1.488,0,0,0,1.672,1.694h3.659Zm-4-1.672a.3.3,0,0,1,.339-.329h2.326v.668h-2.326A.3.3,0,0,1,902.267,609.136Zm6.057,1.672v-4h.668a.589.589,0,0,1,.665.668v3.33h1.333v-3.319a.6.6,0,0,1,.668-.679.589.589,0,0,1,.665.668v3.33h1.333v-3.33a1.767,1.767,0,0,0-2-2c-.115,0-.217,0-.3.007a1.532,1.532,0,0,0-.278.04,1.655,1.655,0,0,0-.321.123c-.119.058-.26.134-.43.231-.17-.1-.314-.173-.434-.231a1.716,1.716,0,0,0-.318-.123,1.62,1.62,0,0,0-.282-.04c-.087,0-.188-.007-.3-.007h-2v5.331h1.333Zm11.51-2.12v-1.333a1.784,1.784,0,0,0-2.033-2h-1.383a1.785,1.785,0,0,0-2.037,2v1.452a1.768,1.768,0,0,0,2,2h3.211v-1.333h-3.211a.592.592,0,0,1-.668-.668v-.119Zm-4.121-1.333a.589.589,0,0,1,.668-.665h1.455a.586.586,0,0,1,.665.665Zm6.3.545H920.56v-1.456h1.456Zm0,2.907H920.56v-1.456h1.456Zm12.117-1.658a1.472,1.472,0,0,1-1.661,1.658h-3.308v-1.333h3.308a.288.288,0,0,0,.329-.325c0-.228-.108-.343-.329-.343H930.46a1.487,1.487,0,0,1-1.658-1.694,1.456,1.456,0,0,1,1.658-1.636h3.308v1.333H930.46c-.209,0-.318.108-.325.329s.116.339.325.339h2.012A1.472,1.472,0,0,1,934.133,609.15Zm2.059,1.658v-4h2a.589.589,0,0,1,.665.668v3.33h1.333v-3.33a1.767,1.767,0,0,0-2-2h-2v-1.94h-1.333v7.271Zm10.059-1.878a1.77,1.77,0,0,1-2,2h-1.333a1.767,1.767,0,0,1-2-2v-1.575a1.767,1.767,0,0,1,2-2h1.333a1.77,1.77,0,0,1,2,2Zm-1.333,0v-1.575a.589.589,0,0,0-.668-.665h-1.333a.586.586,0,0,0-.665.665v1.575a.589.589,0,0,0,.665.668h1.333A.592.592,0,0,0,944.918,608.93Zm6.577-3.453h-1.333l-1.333,3.319-1.246-3.319h-1.42l2,5.331H949.5l1.333-3.319,1.333,3.319H953.5l2-5.331h-1.416l-1.25,3.319Zm11.756,5.331v-4h2a.591.591,0,0,1,.668.668v3.33h1.333v-3.33a1.769,1.769,0,0,0-2-2h-2v-1.94h-1.333v7.271Zm10.055-1.878a1.767,1.767,0,0,1-2,2h-1.333a1.768,1.768,0,0,1-2-2v-1.575a1.768,1.768,0,0,1,2-2h1.333a1.767,1.767,0,0,1,2,2Zm-1.333,0v-1.575a.586.586,0,0,0-.665-.665h-1.333a.589.589,0,0,0-.668.665v1.575a.592.592,0,0,0,.668.668h1.333A.589.589,0,0,0,971.973,608.93Zm7.393.22a1.474,1.474,0,0,1-1.661,1.658H974.4v-1.333h3.308a.287.287,0,0,0,.325-.325c0-.228-.109-.343-.325-.343h-2.012a1.489,1.489,0,0,1-1.661-1.694,1.458,1.458,0,0,1,1.661-1.636H979v1.333h-3.308c-.209,0-.318.108-.329.329.011.224.119.339.329.339h2.012A1.474,1.474,0,0,1,979.366,609.15Zm.726-2.34h.726v4h1.333v-4h.726v-1.333h-.726v-1.94h-1.333v1.94h-.726ZM871.61,620.924a1.767,1.767,0,0,0,2,2h3.334v-7.27h-1.333v1.939h-2a1.764,1.764,0,0,0-2,2Zm4,.668h-2a.589.589,0,0,1-.665-.668v-1.333a.586.586,0,0,1,.665-.665h2ZM879,622.925h-1.333v-5.331H879Zm0-5.938h-1.333v-1.333H879Zm6.06,4.276a1.473,1.473,0,0,1-1.661,1.661H880.09v-1.333H883.4a.29.29,0,0,0,.329-.329.3.3,0,0,0-.329-.34h-2.012a1.487,1.487,0,0,1-1.658-1.694,1.456,1.456,0,0,1,1.658-1.636H884.7v1.333h-3.308a.294.294,0,0,0-.325.329q.011.336.325.336H883.4a1.474,1.474,0,0,1,1.661,1.672Zm6.725,1.661h-1.9l-2.095-2h-.668v2h-1.333v-7.27h1.333v3.937h.668l2.106-2h1.892l-2.727,2.665Zm11.753-1.661a1.473,1.473,0,0,1-1.661,1.661h-3.3v-1.333h3.3a.29.29,0,0,0,.329-.329.3.3,0,0,0-.329-.34h-2.012a1.487,1.487,0,0,1-1.658-1.694,1.456,1.456,0,0,1,1.658-1.636h3.309v1.333h-3.309c-.209,0-.318.108-.325.329s.116.336.325.336h2.012a1.474,1.474,0,0,1,1.661,1.672Zm6.057-1.672a1.764,1.764,0,0,0-2-2h-3.334v8H905.6v-2.665h1.976a1.778,1.778,0,0,0,2.023-2Zm-4-.665h2a.586.586,0,0,1,.665.665v1.333a.589.589,0,0,1-.665.668h-2Zm10.059,4v-3.334a1.767,1.767,0,0,0-2-2h-3.088v1.333h3.088a.584.584,0,0,1,.668.654v.011H912a1.462,1.462,0,0,0-1.672,1.636,1.489,1.489,0,0,0,1.672,1.7h3.659Zm-4-1.672a.3.3,0,0,1,.339-.329h2.326v.668H912A.3.3,0,0,1,911.657,621.253Zm10.055,1.672h-3.33a1.769,1.769,0,0,1-2-2v-1.333a1.767,1.767,0,0,1,2-2h3.33v1.333h-3.33a.589.589,0,0,0-.668.665v1.333a.592.592,0,0,0,.668.668h3.33Zm6.18-2.12v-1.333a1.784,1.784,0,0,0-2.033-2h-1.383a1.783,1.783,0,0,0-2.033,2v1.452a1.767,1.767,0,0,0,2,2h3.211v-1.333h-3.211a.589.589,0,0,1-.665-.668v-.119Zm-4.117-1.333a.589.589,0,0,1,.665-.668h1.456a.589.589,0,0,1,.664.668Zm-27.93,13.569a1.767,1.767,0,0,0,2,2h3.334v-7.27h-1.333v1.939h-2a1.765,1.765,0,0,0-2,2Zm4,.668h-2a.589.589,0,0,1-.665-.668v-1.333a.587.587,0,0,1,.665-.665h2Zm7.39-.545a1.765,1.765,0,0,1-2,2H903.9a1.766,1.766,0,0,1-2-2V631.59a1.768,1.768,0,0,1,2-2h1.333a1.767,1.767,0,0,1,2,2Zm-1.333,0V631.59a.589.589,0,0,0-.665-.668H903.9a.592.592,0,0,0-.668.668v1.575a.589.589,0,0,0,.668.665h1.333A.586.586,0,0,0,905.9,633.165Zm7.393,1.878H909.96a1.769,1.769,0,0,1-2-2v-1.333a1.767,1.767,0,0,1,2-2h3.334v1.333H909.96a.589.589,0,0,0-.668.665v1.333a.592.592,0,0,0,.668.668h3.334Zm6.324,0h-1.9l-2.095-2h-.668v2h-1.333v-7.27h1.333v3.937h.668l2.106-2h1.893l-2.727,2.666Zm5.27-2.12V631.59a1.784,1.784,0,0,0-2.033-2H921.47a1.783,1.783,0,0,0-2.034,2v1.452a1.767,1.767,0,0,0,2,2h3.211V633.71h-3.211a.589.589,0,0,1-.664-.668v-.119Zm-4.117-1.333a.589.589,0,0,1,.664-.668h1.456a.589.589,0,0,1,.664.668Zm6.176,3.453v-4h2a.589.589,0,0,1,.668.665h1.333a1.767,1.767,0,0,0-2-2h-3.33v5.331Zm5.782-2.907h-1.455V630.68h1.455Zm0,2.907h-1.455v-1.455h1.455Zm12.117-1.661a1.475,1.475,0,0,1-1.661,1.661h-3.308V633.71h3.308a.291.291,0,0,0,.329-.329.3.3,0,0,0-.329-.34h-2.012a1.487,1.487,0,0,1-1.658-1.694,1.456,1.456,0,0,1,1.658-1.636h3.308v1.333h-3.308a.293.293,0,0,0-.325.325c.007.227.116.339.325.339h2.012A1.474,1.474,0,0,1,944.846,633.381Zm6.18-.459V631.59a1.785,1.785,0,0,0-2.037-2h-1.38a1.785,1.785,0,0,0-2.037,2v1.452a1.768,1.768,0,0,0,2,2h3.211V633.71h-3.211a.592.592,0,0,1-.668-.668v-.119ZM946.9,631.59a.591.591,0,0,1,.668-.668h1.452a.591.591,0,0,1,.668.668Zm6.18,3.453v-4h2a.587.587,0,0,1,.665.665h1.333a1.764,1.764,0,0,0-2-2h-3.334v5.331Zm7.78,0,2.666-5.331h-1.492l-1.827,3.695-1.842-3.695h-1.492l2.666,5.331Zm7.96-2.12V631.59a1.785,1.785,0,0,0-2.037-2h-1.38a1.785,1.785,0,0,0-2.037,2v1.452a1.769,1.769,0,0,0,2,2h3.211V633.71h-3.211a.592.592,0,0,1-.668-.668v-.119ZM964.7,631.59a.591.591,0,0,1,.668-.668h1.452a.591.591,0,0,1,.668.668Zm6.18,3.453v-4h2a.586.586,0,0,1,.665.665h1.333a1.765,1.765,0,0,0-2-2H969.55v5.331Zm7.393,0H976.82v-5.818h-1.452v-1.452h2.907Zm-81.1,12.117h-1.333v-5.331h1.333Zm0-5.938h-1.333V639.89h1.333Zm.726,3.937a1.768,1.768,0,0,0,2,2h3.33v-7.27H901.9v1.94h-2a1.766,1.766,0,0,0-2,2Zm4,.668h-2a.59.59,0,0,1-.668-.668v-1.333a.588.588,0,0,1,.668-.665h2Zm3.514-1.578H903.96V642.8h1.456Zm0,2.911H903.96V645.7h1.456Zm6.786-2a1.767,1.767,0,0,0,2,2h3.334v-7.27H916.2v1.94h-2a1.764,1.764,0,0,0-2,2Zm4,.668h-2a.589.589,0,0,1-.664-.668v-1.333a.586.586,0,0,1,.664-.665h2Zm2.059-4h0a1.827,1.827,0,0,1,.589-1.376,1.966,1.966,0,0,1,1.412-.564h.665v1.333h-.665c-.444,0-.668.2-.668.607h.726v1.333h-.726v4h-1.333Zm5.938,5.331h-1.456v-5.818H921.29V639.89H924.2Zm-27.02,12.117h-1.333v-5.335h1.333Zm0-5.938h-1.333v-1.333h1.333Zm6.057,5.938H899.9a1.768,1.768,0,0,1-2-2v-1.333a1.768,1.768,0,0,1,2-2h3.33v1.336H899.9a.588.588,0,0,0-.668.665v1.333a.588.588,0,0,0,.668.665h3.33v1.336Zm6.06-1.878a1.767,1.767,0,0,1-2,2h-1.333a1.767,1.767,0,0,1-2-2v-1.578a1.767,1.767,0,0,1,2-2h1.333a1.767,1.767,0,0,1,2,2Zm-1.336,0v-1.578a.587.587,0,0,0-.665-.665h-1.333a.589.589,0,0,0-.668.665V657.4a.59.59,0,0,0,.668.665h1.333A.588.588,0,0,0,907.959,657.4Zm3.4,1.878v-4h2a.589.589,0,0,1,.668.665v3.334h1.333v-3.334a1.77,1.77,0,0,0-2-2h-3.33v5.335h1.333Zm6.18-2.911h-1.456v-1.452h1.456Zm0,2.911h-1.456v-1.456h1.456Zm14.053-2.182a1.928,1.928,0,0,1-2.178,2.182H924.32v-7.27h5.089a1.926,1.926,0,0,1,2.178,2.181V657.1Zm-5.815.726h3.637a.642.642,0,0,0,.726-.726v-2.908a.643.643,0,0,0-.726-.729h-3.637Zm11.995-.668v-1.333a1.78,1.78,0,0,0-2.033-2H934.35a1.781,1.781,0,0,0-2.033,2v1.455a1.767,1.767,0,0,0,2,2h3.211v-1.336h-3.211a.586.586,0,0,1-.665-.665v-.123Zm-4.117-1.333a.586.586,0,0,1,.665-.665h1.456a.586.586,0,0,1,.664.665Zm7.949,3.456,2.665-5.335h-1.492l-1.831,3.7-1.842-3.7h-1.488l2.665,5.335Zm4.359,0h-1.333v-5.335h1.333Zm0-5.938h-1.333v-1.333h1.333Zm6.061,5.938h-3.334a1.767,1.767,0,0,1-2-2v-1.333a1.767,1.767,0,0,1,2-2h3.334v1.336h-3.334a.586.586,0,0,0-.665.665v1.333a.587.587,0,0,0,.665.665h3.334Zm6.18-2.124v-1.333a1.783,1.783,0,0,0-2.037-2h-1.38a1.783,1.783,0,0,0-2.037,2v1.455a1.769,1.769,0,0,0,2,2h3.211v-1.336h-3.211a.589.589,0,0,1-.668-.665v-.123Zm-4.121-1.333a.589.589,0,0,1,.668-.665H956.2a.589.589,0,0,1,.668.665Zm12.117,3.456h-1.456v-2.911H960.38v2.911h-1.456v-7.271h1.456v2.908h4.359v-2.908h1.456Zm.726-2a1.77,1.77,0,0,0,2,2h3.334v-7.271h-1.336v1.936h-2a1.77,1.77,0,0,0-2,2Zm4,.665h-2a.589.589,0,0,1-.668-.665v-1.333a.589.589,0,0,1,.668-.665h2Zm1.661-.665a1.77,1.77,0,0,0,2,2h3.33v-7.271h-1.333v1.936h-2a1.77,1.77,0,0,0-2,2Zm4,.665h-2a.589.589,0,0,1-.668-.665v-1.333a.589.589,0,0,1,.668-.665h2Zm-79.4,13.45h-1.333V666.06h1.333Zm0-5.934h-1.333v-1.336h1.333Zm2.059,5.934v-4h.668a.59.59,0,0,1,.665.668v3.33H901.9v-3.319a.666.666,0,1,1,1.333-.011v3.33h1.333v-3.33a1.768,1.768,0,0,0-2-2c-.112,0-.213,0-.3.007a1.272,1.272,0,0,0-.278.043,1.632,1.632,0,0,0-.321.119c-.119.058-.264.134-.43.231-.17-.1-.314-.173-.434-.231a1.629,1.629,0,0,0-.321-.119,1.274,1.274,0,0,0-.278-.043c-.087,0-.188-.007-.3-.007h-2v5.331h1.333Zm11.391,0v-3.33a1.77,1.77,0,0,0-2-2h-3.092v1.333h3.092a.583.583,0,0,1,.665.654v.014h-2.326a1.463,1.463,0,0,0-1.672,1.636,1.488,1.488,0,0,0,1.672,1.694h3.662Zm-4-1.672c0-.217.116-.325.339-.325h2.326v.664h-2.326A.3.3,0,0,1,906.626,669.719Zm9.658,2.34a1.775,1.775,0,0,1-2.023,2h-1.976v-1.333h2a.586.586,0,0,0,.665-.665v-.668h-2a1.767,1.767,0,0,1-2-2v-1.333a1.769,1.769,0,0,1,2-2h3.33Zm-1.333-4.666h-2a.591.591,0,0,0-.668.668v1.333a.589.589,0,0,0,.668.664h2Zm7.115,1.878v-1.333a1.783,1.783,0,0,0-2.037-2h-1.383a1.781,1.781,0,0,0-2.033,2v1.456a1.764,1.764,0,0,0,2,2h3.211v-1.333H918.61a.586.586,0,0,1-.664-.664v-.123Zm-4.121-1.333a.586.586,0,0,1,.665-.664h1.456a.586.586,0,0,1,.665.664Zm6.3.545h-1.452v-1.452h1.452Zm0,2.907h-1.452v-1.452h1.452Zm-47.3,10.12a1.767,1.767,0,0,1-2,2h-3.33v-7.271h1.333v1.94h2a1.769,1.769,0,0,1,2,2Zm-4,.665h2a.589.589,0,0,0,.668-.665v-1.333a.592.592,0,0,0-.668-.668h-2Zm9.658-.607a1.742,1.742,0,0,1-2,1.939h-1.333a1.764,1.764,0,0,1-2-2v-3.334H878.6v3.334a.594.594,0,0,0,.665.665H880.6a.6.6,0,0,0,.668-.665v-3.334H882.6Zm6.057.282A1.471,1.471,0,0,1,887,683.509h-3.308v-1.333H887a.287.287,0,0,0,.325-.325c0-.227-.108-.34-.325-.34h-2.012a1.49,1.49,0,0,1-1.661-1.7,1.457,1.457,0,0,1,1.661-1.636H888.3v1.333h-3.308a.3.3,0,0,0-.329.329c.007.224.116.339.329.339H887A1.471,1.471,0,0,1,888.657,681.851Zm1.456,4.323h.618a2.343,2.343,0,0,0,2.095-1.56l.545-1.105,2.665-5.331h-1.488l-1.831,3.695-1.842-3.695h-1.492l2.557,5.114-.387.8c-.339.5-.618.751-.838.751h-.6Zm11.619-4.663a1.764,1.764,0,0,1-2,2H896.4v-7.27h1.333v1.939h2a1.767,1.767,0,0,1,2,2Zm-4,.665h2a.587.587,0,0,0,.665-.665v-1.333a.589.589,0,0,0-.665-.668h-2Zm10.059-.545a1.769,1.769,0,0,1-2,2h-1.333a1.769,1.769,0,0,1-2-2v-1.575a1.767,1.767,0,0,1,2-2h1.333a1.767,1.767,0,0,1,2,2Zm-1.336,0v-1.575a.586.586,0,0,0-.665-.664h-1.333a.589.589,0,0,0-.668.664v1.575a.591.591,0,0,0,.668.668h1.333A.589.589,0,0,0,906.456,681.631Zm3.287-.787-1.867,2.665H909.5l1.04-1.488,1.044,1.488h1.622l-1.853-2.665,1.853-2.666h-1.622l-1.044,1.5-1.04-1.5h-1.625Zm5.28-.242h-1.452v-1.452h1.452Zm0,2.907h-1.452v-1.452h1.452Zm2.062,0v-7.27h-1.333v7.27Zm6.057,0v-3.33a1.767,1.767,0,0,0-2-2h-3.092v1.333h3.092a.583.583,0,0,1,.665.654v.014h-2.326a1.462,1.462,0,0,0-1.672,1.636,1.487,1.487,0,0,0,1.672,1.694h3.659Zm-4-1.672c0-.217.112-.325.339-.325h2.326v.665h-2.326A.3.3,0,0,1,919.144,681.836Zm4.255-2.326h.726v4h1.333v-4h.726v-1.333h-.726v-1.939h-1.333v1.939H923.4Zm8.965,1.878v-1.333a1.782,1.782,0,0,0-2.033-2h-1.383a1.783,1.783,0,0,0-2.037,2v1.456a1.767,1.767,0,0,0,2,2h3.211v-1.333H928.91a.589.589,0,0,1-.668-.665v-.123Zm-4.121-1.333a.589.589,0,0,1,.668-.664h1.452a.587.587,0,0,1,.668.664Zm10.182,1.8a1.474,1.474,0,0,1-1.661,1.658h-3.308v-1.333h3.308a.287.287,0,0,0,.325-.325c0-.227-.108-.34-.325-.34h-2.012a1.492,1.492,0,0,1-1.661-1.7,1.459,1.459,0,0,1,1.661-1.636h3.308v1.333h-3.308c-.209,0-.318.108-.329.329.011.224.119.339.329.339h2.012A1.474,1.474,0,0,1,938.424,681.851Zm.726-2.34h.726v4h1.333v-4h.726v-1.333h-.726v-1.939h-1.333v1.939h-.726Zm-39.321,16.116,2.666-5.331h-1.488l-1.831,3.695-1.842-3.695h-1.488l2.665,5.331Zm7.841-1.878a1.769,1.769,0,0,1-2,2h-1.333a1.767,1.767,0,0,1-2-2v-1.575a1.767,1.767,0,0,1,2-2h1.333a1.769,1.769,0,0,1,2,2Zm-1.333,0v-1.575a.592.592,0,0,0-.668-.668h-1.333a.589.589,0,0,0-.664.668v1.575a.589.589,0,0,0,.664.668h1.333A.592.592,0,0,0,906.337,693.748Zm3.391,1.878v-7.27H908.4v7.27Zm6.06-1.94a1.742,1.742,0,0,1-2,1.94h-1.333a1.765,1.765,0,0,1-2-2V690.3h1.333v3.333a.594.594,0,0,0,.665.665h1.333a.6.6,0,0,0,.668-.665V690.3h1.333Zm2.059,1.94v-4h.668a.588.588,0,0,1,.664.665v3.334h1.333v-3.319a.6.6,0,0,1,.668-.679.586.586,0,0,1,.664.665v3.334h1.333v-3.334a1.764,1.764,0,0,0-2-2c-.116,0-.217,0-.3.007a1.534,1.534,0,0,0-.278.04,1.646,1.646,0,0,0-.322.123c-.119.058-.26.133-.43.231-.17-.1-.314-.173-.433-.231a1.7,1.7,0,0,0-.318-.123,1.617,1.617,0,0,0-.282-.04c-.087-.007-.188-.007-.3-.007h-2v5.331h1.333Zm11.511-2.12v-1.333a1.784,1.784,0,0,0-2.033-2h-1.383a1.785,1.785,0,0,0-2.037,2v1.456a1.767,1.767,0,0,0,2,2h3.211v-1.333h-3.211a.589.589,0,0,1-.668-.664v-.123Zm-4.121-1.333a.592.592,0,0,1,.668-.668h1.452a.59.59,0,0,1,.668.668h-2.788Zm10.182,1.792a1.475,1.475,0,0,1-1.661,1.661h-3.308v-1.333h3.308a.288.288,0,0,0,.325-.329.292.292,0,0,0-.325-.336h-2.012a1.494,1.494,0,0,1-1.661-1.7,1.458,1.458,0,0,1,1.661-1.636h3.308v1.333h-3.308c-.209,0-.318.108-.329.329.011.224.119.336.329.336h2.012A1.475,1.475,0,0,1,935.419,693.965Zm2.178-1.246h-1.452v-1.456H937.6Zm0,2.908h-1.452v-1.452H937.6Z" transform="translate(-163.837 -233.553)" fill="#1f224d"/><path d="M1284.38,606.536h-4.363v-1.456h4.363Zm8.119,2.181v-4h2a.589.589,0,0,1,.668.665v3.334h1.333v-3.334a1.77,1.77,0,0,0-2-2h-3.33v5.335h1.333Zm10.055,0v-3.334a1.767,1.767,0,0,0-2-2h-3.092v1.336h3.092a.582.582,0,0,1,.665.654v.011H1298.9a1.462,1.462,0,0,0-1.672,1.636,1.489,1.489,0,0,0,1.672,1.7h3.659Zm-4-1.672c0-.22.112-.329.34-.329h2.326v.665H1298.9A.3.3,0,0,1,1298.556,607.046Zm6.061,1.672v-4h.665a.589.589,0,0,1,.668.665v3.334h1.333V605.4a.666.666,0,1,1,1.333-.011v3.334h1.333v-3.334a1.769,1.769,0,0,0-2-2c-.112,0-.213,0-.3.007a1.338,1.338,0,0,0-.278.043,1.974,1.974,0,0,0-.321.119c-.116.058-.26.134-.43.231-.17-.1-.314-.173-.43-.231a1.869,1.869,0,0,0-.321-.119,1.3,1.3,0,0,0-.278-.043c-.09,0-.191-.007-.3-.007h-2v5.335h1.333Zm11.511-2.124v-1.333a1.783,1.783,0,0,0-2.037-2h-1.38a1.783,1.783,0,0,0-2.037,2v1.456a1.768,1.768,0,0,0,2,2h3.207v-1.336h-3.207a.589.589,0,0,1-.668-.665v-.123h4.121Zm-4.121-1.333a.589.589,0,0,1,.668-.665h1.452a.589.589,0,0,1,.668.665Zm6.3.545h-1.456v-1.452h1.456Zm0,2.911h-1.456v-1.456h1.456Zm-45.075,10.456a1.474,1.474,0,0,1-1.661,1.658h-3.308V619.5h3.308a.287.287,0,0,0,.325-.325c0-.228-.108-.339-.325-.339h-2.012a1.492,1.492,0,0,1-1.661-1.7,1.458,1.458,0,0,1,1.661-1.636h3.308v1.333h-3.308c-.209,0-.318.108-.329.329.011.224.119.339.329.339h2.012A1.474,1.474,0,0,1,1273.234,619.174Zm2.059,1.658v-4h2a.592.592,0,0,1,.668.668v3.33h1.333V617.5a1.769,1.769,0,0,0-2-2h-2v-1.939h-1.333v7.27Zm10.055-1.878a1.767,1.767,0,0,1-2,2h-1.333a1.769,1.769,0,0,1-2-2v-1.575a1.767,1.767,0,0,1,2-2h1.333a1.764,1.764,0,0,1,2,2Zm-1.333,0v-1.575a.586.586,0,0,0-.665-.665h-1.333a.589.589,0,0,0-.668.665v1.575a.591.591,0,0,0,.668.668h1.333A.589.589,0,0,0,1284.015,618.954Zm6.581-3.453h-1.333l-1.333,3.323-1.25-3.323h-1.416l2,5.331h1.333l1.333-3.319,1.336,3.319h1.333l2-5.331h-1.416l-1.25,3.323Zm11.753,5.331v-4h2a.589.589,0,0,1,.665.668v3.33h1.333V617.5a1.767,1.767,0,0,0-2-2h-2v-1.939h-1.333v7.27Zm10.059-1.878a1.769,1.769,0,0,1-2,2h-1.333a1.767,1.767,0,0,1-2-2v-1.575a1.765,1.765,0,0,1,2-2h1.333a1.767,1.767,0,0,1,2,2Zm-1.333,0v-1.575a.589.589,0,0,0-.668-.665h-1.333a.586.586,0,0,0-.665.665v1.575a.589.589,0,0,0,.665.668h1.333A.592.592,0,0,0,1311.074,618.954Zm7.39.22a1.471,1.471,0,0,1-1.658,1.658H1313.5V619.5h3.308a.287.287,0,0,0,.325-.325c0-.228-.108-.339-.325-.339h-2.012a1.49,1.49,0,0,1-1.661-1.7,1.457,1.457,0,0,1,1.661-1.636h3.308v1.333h-3.308a.3.3,0,0,0-.329.329c.007.224.119.339.329.339h2.012A1.471,1.471,0,0,1,1318.464,619.174Zm.729-2.34h.726v4h1.332v-4h.726V615.5h-.726v-1.939h-1.332V615.5h-.726ZM1267.9,630.952a1.767,1.767,0,0,0,2,2h3.334v-7.271H1271.9v1.94h-2a1.77,1.77,0,0,0-2,2Zm4,.664h-2a.589.589,0,0,1-.668-.664v-1.333a.592.592,0,0,1,.668-.668h2Zm3.4,1.333h-1.333v-5.331h1.333Zm0-5.938h-1.333v-1.333h1.333Zm6.057,4.28a1.471,1.471,0,0,1-1.658,1.658h-3.308v-1.333h3.308a.287.287,0,0,0,.325-.325c0-.227-.109-.339-.325-.339h-2.011a1.491,1.491,0,0,1-1.662-1.7,1.457,1.457,0,0,1,1.662-1.636h3.308v1.333h-3.308a.3.3,0,0,0-.329.329c.007.224.119.339.329.339h2.011A1.471,1.471,0,0,1,1281.35,631.291Zm6.725,1.658h-1.9l-2.1-2h-.665v2h-1.333v-7.271h1.333v3.94h.665l2.109-2h1.889l-2.727,2.666,2.727,2.665Zm11.756-1.658a1.474,1.474,0,0,1-1.661,1.658h-3.308v-1.333h3.308a.287.287,0,0,0,.325-.325c0-.227-.108-.339-.325-.339h-2.012a1.492,1.492,0,0,1-1.661-1.7,1.458,1.458,0,0,1,1.661-1.636h3.308v1.333h-3.308c-.209,0-.318.108-.329.329.011.224.119.339.329.339h2.012A1.474,1.474,0,0,1,1299.831,631.291Zm6.057-1.672a1.769,1.769,0,0,0-2-2h-3.33v8h1.333v-2.666h1.976a1.777,1.777,0,0,0,2.022-2Zm-4-.668h2a.591.591,0,0,1,.668.668v1.333a.589.589,0,0,1-.668.664h-2Zm10.055,4v-3.33a1.767,1.767,0,0,0-2-2h-3.092v1.333h3.092a.583.583,0,0,1,.665.654v.014h-2.326a1.463,1.463,0,0,0-1.672,1.636,1.488,1.488,0,0,0,1.672,1.694Zm-4-1.672c0-.217.115-.325.34-.325h2.326v.664h-2.326A.3.3,0,0,1,1307.947,631.277Zm10.059,1.672h-3.334a1.765,1.765,0,0,1-2-2v-1.333a1.767,1.767,0,0,1,2-2h3.334v1.333h-3.334a.589.589,0,0,0-.664.668v1.333a.586.586,0,0,0,.664.664h3.334Zm6.18-2.12V629.5a1.783,1.783,0,0,0-2.037-2h-1.38a1.783,1.783,0,0,0-2.037,2v1.456a1.767,1.767,0,0,0,2,2h3.211v-1.333h-3.211a.589.589,0,0,1-.668-.665v-.123Zm-4.121-1.333a.589.589,0,0,1,.668-.665h1.452a.589.589,0,0,1,.668.665Zm-27.93,13.573a1.767,1.767,0,0,0,2,2h3.33V637.8h-1.333v1.939h-2a1.769,1.769,0,0,0-2,2v1.336Zm4,.665h-2a.589.589,0,0,1-.668-.665v-1.336a.589.589,0,0,1,.668-.665h2v2.666Zm7.393-.545a1.769,1.769,0,0,1-2,2h-1.333a1.767,1.767,0,0,1-2-2v-1.575a1.767,1.767,0,0,1,2-2h1.333a1.769,1.769,0,0,1,2,2Zm-1.333,0v-1.575a.589.589,0,0,0-.668-.664h-1.333a.586.586,0,0,0-.665.664v1.575a.589.589,0,0,0,.665.668h1.333A.592.592,0,0,0,1302.193,643.188Zm7.39,1.878h-3.33a1.766,1.766,0,0,1-2-2v-1.336a1.767,1.767,0,0,1,2-2h3.33v1.333h-3.33a.589.589,0,0,0-.668.665v1.336a.589.589,0,0,0,.668.665h3.33Zm6.324,0h-1.9l-2.1-2h-.664v2h-1.333V637.8h1.333v3.937h.664l2.109-2h1.889l-2.723,2.666Zm5.273-2.12v-1.333a1.785,1.785,0,0,0-2.037-2h-1.38a1.785,1.785,0,0,0-2.037,2v1.456a1.767,1.767,0,0,0,2,2h3.211v-1.333h-3.211a.589.589,0,0,1-.668-.665v-.123Zm-4.121-1.333a.589.589,0,0,1,.668-.664h1.452a.589.589,0,0,1,.668.664Zm6.18,3.453v-4h2a.587.587,0,0,1,.665.664h1.333a1.766,1.766,0,0,0-2-2h-3.334v5.331Zm5.779-2.907h-1.452V640.7h1.452Zm0,2.907h-1.452v-1.452h1.452Zm-55.783,10.456a1.475,1.475,0,0,1-1.661,1.661h-3.308v-1.333h3.308a.288.288,0,0,0,.325-.329c0-.224-.108-.339-.325-.339h-2.012a1.489,1.489,0,0,1-1.661-1.694,1.458,1.458,0,0,1,1.661-1.636h3.308v1.333h-3.308a.3.3,0,0,0-.329.325c.011.228.119.34.329.34h2.012A1.475,1.475,0,0,1,1273.234,655.523Zm6.18-.459v-1.333a1.785,1.785,0,0,0-2.037-2h-1.383a1.784,1.784,0,0,0-2.033,2v1.452a1.766,1.766,0,0,0,2,2h3.211v-1.333h-3.211a.589.589,0,0,1-.665-.668v-.119Zm-4.121-1.333a.589.589,0,0,1,.665-.668h1.455a.589.589,0,0,1,.665.668Zm6.18,3.453v-4h2a.589.589,0,0,1,.668.665h1.333a1.767,1.767,0,0,0-2-2h-3.33v5.331Zm7.78,0,2.665-5.331h-1.492l-1.831,3.695-1.842-3.695h-1.488l2.666,5.331h1.322Zm7.96-2.12v-1.333a1.785,1.785,0,0,0-2.037-2h-1.38a1.785,1.785,0,0,0-2.037,2v1.452a1.768,1.768,0,0,0,2,2h3.211v-1.333h-3.211a.591.591,0,0,1-.668-.668v-.119Zm-4.121-1.333a.591.591,0,0,1,.668-.668h1.452a.592.592,0,0,1,.668.668Zm6.179,3.453v-4h2a.586.586,0,0,1,.665.665h1.333a1.764,1.764,0,0,0-2-2h-3.333v5.331Zm7.393,0h-1.455v-5.815h-1.456v-1.455h2.911Zm-13.2,24.235h-1.333v-5.335h1.333Zm0-5.938h-1.333v-1.333h1.333Zm6.061,5.938h-3.334a1.77,1.77,0,0,1-2-2v-1.333a1.77,1.77,0,0,1,2-2h3.334v1.336h-3.334a.589.589,0,0,0-.668.665v1.333a.591.591,0,0,0,.668.668h3.334Zm6.057-1.878a1.767,1.767,0,0,1-2,2h-1.333a1.764,1.764,0,0,1-2-2v-1.575a1.765,1.765,0,0,1,2-2h1.333a1.768,1.768,0,0,1,2,2Zm-1.333,0v-1.575a.589.589,0,0,0-.668-.668h-1.333a.588.588,0,0,0-.664.668v1.575a.586.586,0,0,0,.664.664h1.333A.587.587,0,0,0,1304.252,679.541Zm3.391,1.878v-4h2a.586.586,0,0,1,.664.665v3.334h1.333v-3.334a1.767,1.767,0,0,0-2-2h-3.334v5.335h1.333Zm6.18-2.907h-1.452v-1.456h1.452Zm0,2.907h-1.452v-1.456h1.452Zm-38.653,9.936a1.926,1.926,0,0,1-2.182,2.178H1267.9v-7.267h5.089a1.926,1.926,0,0,1,2.182,2.178Zm-5.815.726h3.634a.643.643,0,0,0,.73-.726v-2.911a.643.643,0,0,0-.73-.726h-3.634Zm11.995-.668V690.08a1.782,1.782,0,0,0-2.033-2h-1.383a1.78,1.78,0,0,0-2.034,2v1.455a1.764,1.764,0,0,0,2,2h3.211V692.2H1277.9a.589.589,0,0,1-.664-.668v-.123h4.117Zm-4.117-1.333a.586.586,0,0,1,.664-.665h1.456a.587.587,0,0,1,.665.665Zm7.946,3.453,2.669-5.331h-1.492l-1.831,3.7-1.842-3.7h-1.488l2.666,5.331Zm4.363,0h-1.333V688.2h1.333Zm0-5.934h-1.333v-1.333h1.333Zm6.06,5.934h-3.334a1.764,1.764,0,0,1-2-2V690.2a1.767,1.767,0,0,1,2-2h3.334v1.333h-3.334a.589.589,0,0,0-.665.668v1.333a.589.589,0,0,0,.665.668h3.334Zm6.18-2.12V690.08a1.783,1.783,0,0,0-2.037-2h-1.38a1.783,1.783,0,0,0-2.037,2v1.455a1.767,1.767,0,0,0,2,2h3.211V692.2h-3.211a.592.592,0,0,1-.668-.668v-.123h4.121Zm-4.121-1.333a.589.589,0,0,1,.668-.665h1.452a.589.589,0,0,1,.668.665Zm12.118,3.453h-1.456v-2.907h-4.359v2.907h-1.456v-7.267h1.456v2.908h4.359v-2.908h1.456Zm.726-2a1.767,1.767,0,0,0,2,2h3.33v-7.267H1314.5V688.2h-2a1.769,1.769,0,0,0-2,2Zm4,.668h-2a.592.592,0,0,1-.668-.668V690.2a.592.592,0,0,1,.668-.668h2Zm1.661-.668a1.766,1.766,0,0,0,2,2h3.33v-7.267h-1.333V688.2h-2a1.768,1.768,0,0,0-2,2Zm4,.668h-2a.592.592,0,0,1-.668-.668V690.2a.592.592,0,0,1,.668-.668h2Zm-26.694-22.9h-1.333V663.97h1.333Zm0-5.938h-1.333v-1.333h1.333Zm.726,3.937a1.77,1.77,0,0,0,2,2h3.334v-7.27H1298.2v1.939h-2a1.767,1.767,0,0,0-2,2Zm4,.668h-2a.592.592,0,0,1-.668-.668v-1.333a.589.589,0,0,1,.668-.665h2Zm3.514-1.575h-1.455v-1.456h1.455Zm0,2.907h-1.455v-1.456h1.455Zm6.783-2a1.77,1.77,0,0,0,2,2h3.33v-7.27h-1.333v1.939h-2a1.767,1.767,0,0,0-2,2Zm4,.668h-2a.592.592,0,0,1-.668-.668v-1.333a.589.589,0,0,1,.668-.665h2Zm2.062-4h0a1.836,1.836,0,0,1,.585-1.376,1.972,1.972,0,0,1,1.412-.563h.668v1.333h-.668c-.444,0-.665.2-.665.607h.726V665.3h-.726v4h-1.333Zm5.938,5.331h-1.455v-5.819h-1.456v-1.452h2.911Zm-47.256-72.7v-3.334a1.767,1.767,0,0,0-2-2h-3.092V592.6h3.092a.582.582,0,0,1,.664.654v.011h-2.326a1.463,1.463,0,0,0-1.672,1.636,1.491,1.491,0,0,0,1.672,1.7Zm-4-1.672a.3.3,0,0,1,.339-.329h2.326v.668h-2.326A.3.3,0,0,1,1269.232,594.928Zm10.059,1.672h-3.334a1.767,1.767,0,0,1-2-2v-1.333a1.764,1.764,0,0,1,2-2h3.334V592.6h-3.334a.586.586,0,0,0-.664.665V594.6a.589.589,0,0,0,.664.668h3.334Zm.726-4h.729v4h1.333v-4h.726V591.27h-.726V589.33h-1.333v1.939h-.729Zm4.847,4h-1.333V591.27h1.333Zm0-5.938h-1.333V589.33h1.333Zm6.06,4.06a1.767,1.767,0,0,1-2,2h-1.333a1.767,1.767,0,0,1-2-2v-1.575a1.769,1.769,0,0,1,2-2h1.333a1.769,1.769,0,0,1,2,2Zm-1.333,0v-1.575a.592.592,0,0,0-.668-.668h-1.333a.592.592,0,0,0-.668.668v1.575a.589.589,0,0,0,.668.665h1.333A.589.589,0,0,0,1289.592,594.722Zm3.391,1.878v-4h2a.588.588,0,0,1,.668.665V596.6h1.333v-3.334a1.767,1.767,0,0,0-2-2h-3.33V596.6h1.333Zm10.058-1.661a1.478,1.478,0,0,1-1.661,1.661h-3.308v-1.333h3.308a.288.288,0,0,0,.325-.329c0-.224-.108-.34-.325-.34h-2.012a1.492,1.492,0,0,1-1.661-1.7,1.457,1.457,0,0,1,1.661-1.633h3.308V592.6h-3.308a.3.3,0,0,0-.329.325c.011.227.119.34.329.34h2.012A1.474,1.474,0,0,1,1303.042,594.939Zm2.178-1.25h-1.452v-1.452h1.452Zm0,2.911h-1.452v-1.456h1.452Z" transform="translate(-416.997 -232.218)" fill="#1f224d"/><path d="M973.09,469.93A107.188,107.188,0,1,1,865.9,577.116,107.186,107.186,0,0,1,973.09,469.93Z" transform="translate(-160.19 -155.942)" fill="#ccf" fill-rule="evenodd" opacity="0.39"/><path d="M248.309,578.26c8.325,3.456,10.925,16.253,5.808,28.583s-16.014,19.529-24.34,16.072-10.926-16.253-5.811-28.583S239.98,574.807,248.309,578.26Z" transform="translate(251.568 -224.594)" fill="#fff" fill-rule="evenodd"/><path d="M217.913,722.073c3.6.845,5.508,5.858,4.255,11.2s-5.19,8.979-8.795,8.134-5.508-5.858-4.255-11.2S214.308,721.224,217.913,722.073Z" transform="translate(259.625 -316.939)" fill="#fff" fill-rule="evenodd"/><path d="M967.57,578.26c8.325,3.456,10.925,16.253,5.811,28.583s-16.015,19.529-24.343,16.072-10.926-16.253-5.808-28.583S959.245,574.807,967.57,578.26Z" transform="translate(-207.915 -224.594)" fill="#fff" fill-rule="evenodd"/><path d="M937.173,722.073c3.6.845,5.511,5.858,4.258,11.2s-5.194,8.979-8.8,8.134-5.508-5.858-4.255-11.2S933.568,721.224,937.173,722.073Z" transform="translate(-199.857 -316.939)" fill="#fff" fill-rule="evenodd"/><path d="M428.262,506.14a94.108,94.108,0,1,1,0,188.215q-3.392,0-6.721-.242a94.106,94.106,0,0,0,0-187.731q3.332-.238,6.721-.242Z" transform="translate(123.679 -179.074)" fill="#7b84ab" fill-rule="evenodd"/><path d="M1167.911,506.14a94.108,94.108,0,1,1,0,188.215q-3.391,0-6.721-.242a94.106,94.106,0,0,0,0-187.731q3.326-.238,6.721-.242Z" transform="translate(-348.829 -179.074)" fill="#7b84ab" fill-rule="evenodd"/><path d="M246.054,1257.344s26.387-10.994,32.982,7.039c-1.1,12.092-27.485,1.539-32.762-3.738-2.366,3.077-4.4,5.938-8.795,4.836,3.626-5.605,1.484-5.443,3.9-7.422-2.694-2.033-.6-3.68-2.416-7.913C242.482,1248.166,246.054,1253.605,246.054,1257.344Z" transform="translate(241.261 -654.095)" fill="#c1d9f1" fill-rule="evenodd"/><path d="M385.2,1369.209s16.553-15.563,26.5-3.995c2.568,9.3-20.013,8.838-25.416,6.389-.9,2.951-1.611,5.645-5.19,6.061,1.131-5.19-.419-4.464.827-6.613-2.575-.762-1.481-2.571-4.016-5.212C379.976,1363.384,384.155,1366.428,385.2,1369.209Z" transform="translate(151.55 -725.141)" fill="#c1d9f1" fill-rule="evenodd"/><path d="M1378.681,1287.129s-27.72-6.974-31.581,11.835c2.879,11.8,27.413-2.542,31.852-8.542,2.792,2.694,5.226,5.223,9.416,3.485-4.417-5.01-2.275-5.165-4.959-6.765,2.362-2.409.054-3.731,1.221-8.184C1380.859,1277.522,1378.129,1283.431,1378.681,1287.129Z" transform="translate(-467.593 -672.629)" fill="#c1d9f1" fill-rule="evenodd"/></g></g></svg>