<svg xmlns="http://www.w3.org/2000/svg" xmlns:xlink="http://www.w3.org/1999/xlink" width="150" height="112.597" viewBox="0 0 150 112.597"><defs><clipPath id="a"><rect width="150" height="112.597" fill="none"/></clipPath><clipPath id="b"><path d="M130.047,26.12a16.768,16.768,0,1,1-16.77,16.77,16.765,16.765,0,0,1,16.77-16.77Zm-53.656,0A16.768,16.768,0,1,1,59.62,42.89,16.77,16.77,0,0,1,76.39,26.12Z" transform="translate(-59.62 -26.12)" clip-rule="evenodd"/></clipPath><linearGradient id="c" x1="0.622" y1="0.598" x2="0" y2="0.154" gradientUnits="objectBoundingBox"><stop offset="0" stop-color="#fefefe" stop-opacity="0"/><stop offset="1" stop-color="#fff" stop-opacity="0.471"/></linearGradient><linearGradient id="d" x1="2.065" y1="1.526" x2="0" y2="0.154" gradientUnits="objectBoundingBox"><stop offset="0" stop-color="#fefefe" stop-opacity="0"/><stop offset="1" stop-color="#fff" stop-opacity="0.702"/></linearGradient></defs><g transform="translate(-362 -58.406)"><g transform="translate(362 58.406)" clip-path="url(#a)"><g transform="translate(-378 -196)"><path d="M3.635,158.344q-3.635,0-3.635-3.6v-19.5q0-3.6,3.635-3.6h12.84c1.818,0,2.729.88,2.729,2.65a2.414,2.414,0,0,1-2.729,2.729H6.665V142.1h8.978a2.69,2.69,0,1,1,0,5.379H6.665v5.49h9.81a2.69,2.69,0,1,1,0,5.379H3.635Zm25.569.416a8.653,8.653,0,0,1-3.809-.8,6.3,6.3,0,0,1-2.571-2.176,5.527,5.527,0,0,1-.933-3.166,4.625,4.625,0,0,1,1.064-3.2,6.211,6.211,0,0,1,3.409-1.707,30.774,30.774,0,0,1,6.249-.511h1.438v-.527a2.351,2.351,0,0,0-.7-1.934,3.873,3.873,0,0,0-2.4-.569,11.489,11.489,0,0,0-2.065.211,14.726,14.726,0,0,0-2.518.738,2.38,2.38,0,0,1-2.086-.037,2.285,2.285,0,0,1-1.08-1.423,2.654,2.654,0,0,1,.19-1.855,2.8,2.8,0,0,1,1.686-1.38,18.9,18.9,0,0,1,3.356-.89,17.358,17.358,0,0,1,2.819-.248q4.663,0,6.913,2.007t2.255,6.328v7.65q0,3.406-3.109,3.409-2.948,0-3.14-3.029a4.471,4.471,0,0,1-1.818,2.271,5.689,5.689,0,0,1-3.145.832Zm1.512-4.394a3.324,3.324,0,0,0,2.371-.906,3.128,3.128,0,0,0,.964-2.387v-.685H32.613a8.406,8.406,0,0,0-3.277.474,1.569,1.569,0,0,0-1.043,1.5,1.864,1.864,0,0,0,.627,1.438,2.58,2.58,0,0,0,1.8.569Zm17.619,3.978q-3.643,0-3.641-3.6v-19.5q0-3.6,3.641-3.6h7.424q6.931,0,10.753,3.483t3.83,9.847q0,6.362-3.83,9.868t-10.753,3.5H48.335Zm3.33-5.643H55.3q3.983,0,5.89-1.913t1.913-5.817q0-3.9-1.928-5.8T55.3,137.285H51.665V152.7Zm31.781,6.059a11.774,11.774,0,0,1-5.416-1.175,8.585,8.585,0,0,1-3.6-3.372,11.15,11.15,0,0,1,0-10.4,8.6,8.6,0,0,1,3.6-3.351,13.072,13.072,0,0,1,10.832,0,8.458,8.458,0,0,1,3.577,3.351,11.273,11.273,0,0,1,0,10.4,8.442,8.442,0,0,1-3.577,3.372A11.774,11.774,0,0,1,83.446,158.76Zm0-4.963a3.18,3.18,0,0,0,2.5-1.133,7.272,7.272,0,0,0,0-7.292,3.182,3.182,0,0,0-2.5-1.117,3.227,3.227,0,0,0-2.54,1.117,7.239,7.239,0,0,0,0,7.292A3.224,3.224,0,0,0,83.446,153.8Zm17.044,4.889a3.122,3.122,0,0,1-2.329-.832,3.225,3.225,0,0,1-.811-2.35V134.482a3.079,3.079,0,0,1,.869-2.366,3.444,3.444,0,0,1,2.46-.817,3.8,3.8,0,0,1,2.086.511A4.584,4.584,0,0,1,104.2,133.5l7.46,13.446,7.46-13.446a4.984,4.984,0,0,1,1.459-1.686,3.761,3.761,0,0,1,2.1-.511,2.872,2.872,0,0,1,3.145,3.182V155.5a3.263,3.263,0,0,1-.8,2.35,3.7,3.7,0,0,1-4.679,0,3.227,3.227,0,0,1-.817-2.35V143.84l-5.3,9.241a4.463,4.463,0,0,1-1.117,1.249,3.139,3.139,0,0,1-3.124,0,3.931,3.931,0,0,1-1.1-1.249l-5.263-9.094V155.5a3.263,3.263,0,0,1-.8,2.35,3.109,3.109,0,0,1-2.35.832Zm39.241.074a11.789,11.789,0,0,1-5.416-1.175,8.585,8.585,0,0,1-3.6-3.372,11.15,11.15,0,0,1,0-10.4,8.6,8.6,0,0,1,3.6-3.351,13.072,13.072,0,0,1,10.832,0,8.471,8.471,0,0,1,3.583,3.351,11.273,11.273,0,0,1,0,10.4,8.455,8.455,0,0,1-3.583,3.372A11.774,11.774,0,0,1,139.731,158.76Zm0-4.963a3.18,3.18,0,0,0,2.5-1.133,7.239,7.239,0,0,0,0-7.292,3.4,3.4,0,0,0-5.037,0,7.239,7.239,0,0,0,0,7.292A3.206,3.206,0,0,0,139.731,153.8Z" transform="translate(378 133.878)" fill="#112124"/><path d="M2.083,207.1a.4.4,0,0,1-.453-.448v-6.175a.4.4,0,0,1,.453-.453H5.819a.306.306,0,0,1,.348.342.309.309,0,0,1-.348.353H2.436v2.45H5.608c.232,0,.348.111.348.337a.309.309,0,0,1-.348.353H2.436v2.55H5.819a.345.345,0,1,1,0,.69H2.083Zm5.922.074a.348.348,0,0,1-.332-.163.436.436,0,0,1,.021-.4l2.761-6.286a.535.535,0,0,1,.5-.369.467.467,0,0,1,.274.084.605.605,0,0,1,.205.285l2.771,6.286a.459.459,0,0,1,.032.4.326.326,0,0,1-.321.163.441.441,0,0,1-.3-.095.692.692,0,0,1-.179-.279l-.653-1.507H9.1L8.458,206.8C8.353,207.043,8.2,207.169,8.005,207.169Zm2.935-6.185L9.4,204.6h3.093l-1.538-3.614Zm7.576,6.207a5.165,5.165,0,0,1-1.359-.179,3.3,3.3,0,0,1-1.1-.516.414.414,0,0,1-.195-.258.477.477,0,0,1,.037-.285.35.35,0,0,1,.195-.174.333.333,0,0,1,.3.063,2.937,2.937,0,0,0,.964.474,4.332,4.332,0,0,0,1.154.137,2.222,2.222,0,0,0,1.344-.332,1.077,1.077,0,0,0,.437-.89.859.859,0,0,0-.316-.7,2.477,2.477,0,0,0-1.059-.411l-1.048-.211a2.83,2.83,0,0,1-1.407-.659A1.636,1.636,0,0,1,16,202.027a1.887,1.887,0,0,1,.327-1.1,2.128,2.128,0,0,1,.906-.732,3.277,3.277,0,0,1,1.349-.263,3.742,3.742,0,0,1,1.18.179,3.016,3.016,0,0,1,.985.527.434.434,0,0,1,.169.253.394.394,0,0,1-.047.269.308.308,0,0,1-.2.153.389.389,0,0,1-.311-.074,2.577,2.577,0,0,0-.838-.443,3.381,3.381,0,0,0-.948-.132,1.994,1.994,0,0,0-1.264.369,1.158,1.158,0,0,0-.474.969,1,1,0,0,0,.3.759,1.958,1.958,0,0,0,.969.416l1.043.216a3.274,3.274,0,0,1,1.5.638,1.463,1.463,0,0,1,.49,1.159,1.8,1.8,0,0,1-.316,1.048,2.083,2.083,0,0,1-.906.7,3.488,3.488,0,0,1-1.391.253Zm6.66-.021q-.411,0-.411-.443v-2.982l-2.339-3.214a.36.36,0,0,1-.058-.385.329.329,0,0,1,.337-.195.55.55,0,0,1,.453.269l2.039,2.8,2.023-2.8a.571.571,0,0,1,.453-.269.315.315,0,0,1,.321.184.409.409,0,0,1-.068.406l-2.339,3.224v2.961q0,.443-.411.443Zm7.719-.074a.4.4,0,0,1-.453-.448v-6.175a.4.4,0,0,1,.453-.453h1.939a3.644,3.644,0,0,1,2.65.911,4.165,4.165,0,0,1,0,5.253,3.622,3.622,0,0,1-2.65.911Zm.374-.7h1.5q2.774,0,2.771-2.84t-2.771-2.829h-1.5Zm10.411.8a3.227,3.227,0,0,1-1.712-.448,2.977,2.977,0,0,1-1.128-1.259,4.374,4.374,0,0,1-.4-1.928,4.449,4.449,0,0,1,.39-1.928,2.921,2.921,0,0,1,1.122-1.254,3.585,3.585,0,0,1,3.451,0,2.983,2.983,0,0,1,1.128,1.249,4.334,4.334,0,0,1,.4,1.923,4.413,4.413,0,0,1-.4,1.934,3.038,3.038,0,0,1-1.133,1.264,3.246,3.246,0,0,1-1.718.448Zm0-.738a2.145,2.145,0,0,0,1.754-.759,3.982,3.982,0,0,0,0-4.273,2.39,2.39,0,0,0-3.493,0,3.973,3.973,0,0,0,0,4.268A2.116,2.116,0,0,0,43.68,206.453Zm8.6.738a3.435,3.435,0,0,1-1.791-.443,2.92,2.92,0,0,1-1.138-1.254,4.928,4.928,0,0,1,0-3.867,2.89,2.89,0,0,1,1.138-1.254,3.435,3.435,0,0,1,1.791-.443,3.975,3.975,0,0,1,1.18.179,3.02,3.02,0,0,1,.975.516.414.414,0,0,1,.195.279.405.405,0,0,1-.053.285.376.376,0,0,1-.227.163.423.423,0,0,1-.327-.095,2.65,2.65,0,0,0-1.728-.574,2.249,2.249,0,0,0-1.823.753,3.881,3.881,0,0,0,0,4.247,2.249,2.249,0,0,0,1.823.753,2.717,2.717,0,0,0,1.749-.585.433.433,0,0,1,.327-.09.332.332,0,0,1,.221.153.39.39,0,0,1,.053.269.4.4,0,0,1-.169.269,2.961,2.961,0,0,1-1,.548,3.727,3.727,0,0,1-1.2.19Zm4.916-.021c-.274,0-.411-.148-.411-.432v-6.365a.414.414,0,1,1,.827,0v2.861h.016l3.272-3.051a.743.743,0,0,1,.506-.232c.179,0,.29.063.327.195a.355.355,0,0,1-.126.369l-3.182,2.94,3.34,3.093a.373.373,0,0,1,.142.416.334.334,0,0,1-.353.205.433.433,0,0,1-.253-.068,1.045,1.045,0,0,1-.237-.195l-3.435-3.14h-.016v2.972a.378.378,0,0,1-.416.432Zm7.129-.074a.394.394,0,0,1-.448-.448v-6.175a.4.4,0,0,1,.448-.453h3.736a.307.307,0,0,1,.353.342.311.311,0,0,1-.353.353H64.681v2.45h3.172c.237,0,.353.111.353.337a.311.311,0,0,1-.353.353H64.681v2.55h3.383a.345.345,0,1,1,0,.69H64.328Zm6.628.074c-.274,0-.411-.148-.411-.432v-6.3a.374.374,0,0,1,.422-.421h2.381a2.59,2.59,0,0,1,1.749.532,2.179,2.179,0,0,1,.179,2.8,2.035,2.035,0,0,1-1.207.653,1.5,1.5,0,0,1,.79.78l.964,1.8a.466.466,0,0,1,.042.4.3.3,0,0,1-.321.19.478.478,0,0,1-.285-.079.571.571,0,0,1-.19-.232L73.98,204.83a1.311,1.311,0,0,0-.532-.58,1.9,1.9,0,0,0-.8-.142H71.367v2.629c0,.285-.137.432-.411.432Zm.411-3.714h1.86c1.112,0,1.665-.464,1.665-1.386s-.553-1.365-1.665-1.365h-1.86Zm9.7,3.714c-.253,0-.379-.137-.379-.4v-6.417c0-.269.126-.4.379-.4a.481.481,0,0,1,.258.063.624.624,0,0,1,.174.216l2.6,4.9,2.592-4.9a.684.684,0,0,1,.169-.216.463.463,0,0,1,.263-.063c.248,0,.369.132.369.4v6.417c0,.263-.126.4-.379.4a.35.35,0,0,1-.385-.4v-5.2l-2.266,4.262a.527.527,0,0,1-.148.19.354.354,0,0,1-.216.053.381.381,0,0,1-.221-.058.469.469,0,0,1-.137-.184l-2.3-4.252v5.19c0,.263-.121.4-.369.4Zm11.965.021a3.24,3.24,0,0,1-1.712-.448,2.966,2.966,0,0,1-1.122-1.259,4.933,4.933,0,0,1-.005-3.857,2.91,2.91,0,0,1,1.117-1.254,3.6,3.6,0,0,1,3.456,0,2.938,2.938,0,0,1,1.122,1.249,4.873,4.873,0,0,1-.005,3.857,3.026,3.026,0,0,1-1.128,1.264,3.251,3.251,0,0,1-1.723.448Zm0-.738a2.131,2.131,0,0,0,1.754-.759,3.954,3.954,0,0,0,0-4.273,2.131,2.131,0,0,0-1.754-.759,2.11,2.11,0,0,0-1.733.759,3.945,3.945,0,0,0,0,4.268A2.1,2.1,0,0,0,93.031,206.453Zm5.933.717c-.258,0-.39-.137-.39-.411v-6.386c0-.279.121-.421.364-.421a.42.42,0,0,1,.232.053.881.881,0,0,1,.179.2l4.136,5.511v-5.364c0-.269.126-.4.39-.4.248,0,.369.132.369.4v6.417c0,.263-.105.4-.327.4a.413.413,0,0,1-.242-.063.644.644,0,0,1-.19-.19l-4.136-5.532v5.374C99.349,207.032,99.222,207.169,98.964,207.169Zm8.267,0c-.274,0-.411-.148-.411-.432v-6.354c0-.29.137-.432.411-.432s.411.142.411.432v6.354C107.642,207.022,107.5,207.169,107.231,207.169Zm5.132,0a.376.376,0,0,1-.416-.432v-6h-2.255c-.258,0-.385-.121-.385-.364s.126-.353.385-.353h5.348c.253,0,.385.121.385.353s-.132.364-.385.364h-2.255v6A.379.379,0,0,1,112.362,207.169Zm7.234.021a3.221,3.221,0,0,1-1.707-.448,2.977,2.977,0,0,1-1.128-1.259,4.374,4.374,0,0,1-.4-1.928,4.449,4.449,0,0,1,.39-1.928,2.921,2.921,0,0,1,1.122-1.254,3.585,3.585,0,0,1,3.451,0,2.938,2.938,0,0,1,1.122,1.249,4.262,4.262,0,0,1,.4,1.923,4.34,4.34,0,0,1-.406,1.934,2.991,2.991,0,0,1-1.128,1.264,3.251,3.251,0,0,1-1.723.448Zm0-.738a2.149,2.149,0,0,0,1.76-.759,3.982,3.982,0,0,0,0-4.273,2.149,2.149,0,0,0-1.76-.759,2.117,2.117,0,0,0-1.733.759,3.973,3.973,0,0,0,0,4.268A2.106,2.106,0,0,0,119.6,206.453Zm5.954.717c-.274,0-.411-.148-.411-.432v-6.3a.374.374,0,0,1,.422-.421h2.381a2.572,2.572,0,0,1,1.749.532,2.171,2.171,0,0,1,.184,2.8,2.049,2.049,0,0,1-1.212.653,1.509,1.509,0,0,1,.8.78l.959,1.8a.466.466,0,0,1,.042.4.3.3,0,0,1-.321.19.472.472,0,0,1-.279-.079.571.571,0,0,1-.19-.232l-1.1-2.028a1.282,1.282,0,0,0-.532-.58,1.87,1.87,0,0,0-.8-.142h-1.28v2.629a.376.376,0,0,1-.416.432Zm.416-3.714h1.855c1.112,0,1.665-.464,1.665-1.386s-.553-1.365-1.665-1.365h-1.855Zm7.118,3.714c-.274,0-.411-.148-.411-.432v-6.354c0-.29.137-.432.411-.432s.411.142.411.432v6.354C133.5,207.022,133.358,207.169,133.084,207.169Zm3.372,0c-.258,0-.39-.137-.39-.411v-6.386c0-.279.121-.421.358-.421a.408.408,0,0,1,.232.053.88.88,0,0,1,.184.2l4.131,5.511v-5.364a.351.351,0,0,1,.4-.4c.248,0,.369.132.369.4v6.417c0,.263-.111.4-.332.4a.4.4,0,0,1-.237-.063.721.721,0,0,1-.195-.19l-4.131-5.532v5.374C136.841,207.032,136.709,207.169,136.456,207.169Zm11.085.021a3.376,3.376,0,0,1-2.6-.964,3.769,3.769,0,0,1-.89-2.661,4.332,4.332,0,0,1,.4-1.939,2.924,2.924,0,0,1,1.154-1.254,3.52,3.52,0,0,1,1.818-.443,4.135,4.135,0,0,1,1.222.179,2.928,2.928,0,0,1,1.054.553.379.379,0,0,1,.163.248.405.405,0,0,1-.058.269.353.353,0,0,1-.211.169.329.329,0,0,1-.285-.063,2.751,2.751,0,0,0-.875-.464,3.281,3.281,0,0,0-1.022-.148,2.3,2.3,0,0,0-1.849.759,3.215,3.215,0,0,0-.643,2.134,3.134,3.134,0,0,0,.664,2.15,2.534,2.534,0,0,0,1.981.738,4.639,4.639,0,0,0,1.633-.29v-2.1h-1.433q-.364,0-.364-.332c0-.211.121-.321.364-.321h1.8a.309.309,0,0,1,.348.353v2.619a.383.383,0,0,1-.221.4,4.778,4.778,0,0,1-1.006.3,6.117,6.117,0,0,1-1.138.111Z" transform="translate(377.229 101.407)" fill="#112124"/><path d="M98.912,2.54a39.01,39.01,0,0,1,9.257,1.075C110.846,1.359,111.936,0,118.074,0s29.21,11.665,29.21,30.532-20.711.242-29.21.242a15.387,15.387,0,0,1-15.39-15.385c0-.5.026-.98.068-1.459-1.259-.042-2.54-.068-3.841-.068s-2.582.026-3.846.068c.047.479.074.964.074,1.459A15.387,15.387,0,0,1,79.75,30.774c-8.5,0-30.021,17.808-29.21-.242S73.612,0,79.75,0s7.229,1.359,9.905,3.614A38.977,38.977,0,0,1,98.912,2.54Z" transform="translate(354.099 196)" fill="#486d75" fill-rule="evenodd"/><path d="M130.731,4.82a39.01,39.01,0,0,1,9.257,1.075l3.7,10.432a56.688,56.688,0,0,0-25.922,0l3.7-10.432a38.977,38.977,0,0,1,9.257-1.075Z" transform="translate(322.28 193.72)" fill="#486d75" fill-rule="evenodd"/><path d="M98.932,20.616a54.749,54.749,0,0,1,12.961,1.5A21.543,21.543,0,1,1,104.216,38.6c0-.69.032-1.37.095-2.044q-2.648-.087-5.379-.09c-1.823,0-3.62.032-5.379.09.063.674.095,1.354.095,2.044a21.547,21.547,0,1,1-7.676-16.486,54.716,54.716,0,0,1,12.961-1.5Z" transform="translate(354.079 187.928)" fill="#213336" fill-rule="evenodd"/><circle cx="16.77" cy="16.77" r="16.77" transform="translate(409.412 209.762)" fill="#38b3db"/><circle cx="16.77" cy="16.77" r="16.77" transform="translate(463.068 209.762)" fill="#38b3db"/><path d="M130.047,26.12a16.768,16.768,0,1,1-16.77,16.77,16.765,16.765,0,0,1,16.77-16.77Zm-53.656,0A16.768,16.768,0,1,1,59.62,42.89,16.77,16.77,0,0,1,76.39,26.12Z" transform="translate(349.792 183.642)" fill="#6bc7e4" fill-rule="evenodd"/><g transform="translate(409.412 209.762)" clip-path="url(#b)"><g transform="translate(-0.674 -13.635)"><path d="M58.34,71.21H94.125V107H58.34Z" transform="translate(-58.34 -33.818)" fill="rgba(53,79,84,0.5)" stroke="rgba(53,79,84,0.5)" stroke-miterlimit="22.926" stroke-width="0.97" fill-rule="evenodd"/><path d="M66.02,78.89H93.712v27.687H66.02Z" transform="translate(-61.974 -37.452)" fill="rgba(56,179,219,0.5)" fill-rule="evenodd"/><path d="M130.45,71.21h35.785V107H130.45Z" transform="translate(-92.457 -33.818)" fill="rgba(53,79,84,0.5)" stroke="rgba(53,79,84,0.5)" stroke-miterlimit="22.926" stroke-width="0.97" fill-rule="evenodd"/><path d="M138.13,78.89h27.692v27.687H138.13Z" transform="translate(-96.091 -37.452)" fill="rgba(56,179,219,0.5)" fill-rule="evenodd"/><path d="M202.17,71.21h35.79V107H202.17Z" transform="translate(-126.39 -33.818)" fill="rgba(53,79,84,0.5)" stroke="rgba(53,79,84,0.5)" stroke-miterlimit="22.926" stroke-width="0.97" fill-rule="evenodd"/><path d="M209.86,78.89h27.687v27.687H209.86Z" transform="translate(-130.029 -37.452)" fill="rgba(56,179,219,0.5)" fill-rule="evenodd"/><path d="M58.34.24H94.125V36.025H58.34Z" transform="translate(-58.34 -0.24)" fill="rgba(53,79,84,0.5)" stroke="rgba(53,79,84,0.5)" stroke-miterlimit="22.926" stroke-width="0.97" fill-rule="evenodd"/><path d="M66.02,7.92H93.712V35.612H66.02Z" transform="translate(-61.974 -3.874)" fill="rgba(56,179,219,0.5)" fill-rule="evenodd"/><path d="M130.45.24h35.785V36.025H130.45Z" transform="translate(-92.457 -0.24)" fill="rgba(53,79,84,0.5)" stroke="rgba(53,79,84,0.5)" stroke-miterlimit="22.926" stroke-width="0.97" fill-rule="evenodd"/><path d="M138.13,7.92h27.692V35.612H138.13Z" transform="translate(-96.091 -3.874)" fill="rgba(56,179,219,0.5)" fill-rule="evenodd"/><path d="M202.17.24h35.79V36.025H202.17Z" transform="translate(-126.39 -0.24)" fill="rgba(53,79,84,0.5)" stroke="rgba(53,79,84,0.5)" stroke-miterlimit="22.926" stroke-width="0.97" fill-rule="evenodd"/><path d="M209.86,7.92h27.687V35.612H209.86Z" transform="translate(-130.029 -3.874)" fill="rgba(56,179,219,0.5)" fill-rule="evenodd"/><g transform="translate(6.38 7.297)"><g transform="translate(0 38.519)"><path d="M70.45,87.2h2.813v20.332H70.45Z" transform="translate(-70.45 -87.2)" fill="rgba(53,79,84,0.5)" fill-rule="evenodd"/><path d="M81.51,87.2h2.813v20.332H81.51Z" transform="translate(-75.683 -87.2)" fill="rgba(53,79,84,0.5)" fill-rule="evenodd"/><path d="M92.57,87.2h2.813v20.332H92.57Z" transform="translate(-80.916 -87.2)" fill="rgba(53,79,84,0.5)" fill-rule="evenodd"/><path d="M103.64,87.2h2.813v20.332H103.64Z" transform="translate(-86.153 -87.2)" fill="rgba(53,79,84,0.5)" fill-rule="evenodd"/></g><g transform="translate(39.136 38.519)"><path d="M144.73,87.2h2.813v20.332H144.73Z" transform="translate(-144.73 -87.2)" fill="rgba(53,79,84,0.5)" fill-rule="evenodd"/><path d="M155.79,87.2H158.6v20.332H155.79Z" transform="translate(-149.963 -87.2)" fill="rgba(53,79,84,0.5)" fill-rule="evenodd"/><path d="M166.86,87.2h2.813v20.332H166.86Z" transform="translate(-155.2 -87.2)" fill="rgba(53,79,84,0.5)" fill-rule="evenodd"/><path d="M177.92,87.2h2.813v20.332H177.92Z" transform="translate(-160.433 -87.2)" fill="rgba(53,79,84,0.5)" fill-rule="evenodd"/></g><g transform="translate(78.066 38.519)"><path d="M218.62,87.2h2.814v20.332H218.62Z" transform="translate(-218.62 -87.2)" fill="rgba(53,79,84,0.5)" fill-rule="evenodd"/><path d="M229.68,87.2h2.813v20.332H229.68Z" transform="translate(-223.853 -87.2)" fill="rgba(53,79,84,0.5)" fill-rule="evenodd"/><path d="M240.74,87.2h2.813v20.332H240.74Z" transform="translate(-229.086 -87.2)" fill="rgba(53,79,84,0.5)" fill-rule="evenodd"/><path d="M251.8,87.2h2.814v20.332H251.8Z" transform="translate(-234.318 -87.2)" fill="rgba(53,79,84,0.5)" fill-rule="evenodd"/></g><path d="M70.45,14.09h2.813V34.427H70.45Z" transform="translate(-70.45 -14.09)" fill="rgba(53,79,84,0.5)" fill-rule="evenodd"/><path d="M81.51,14.09h2.813V34.427H81.51Z" transform="translate(-75.683 -14.09)" fill="rgba(53,79,84,0.5)" fill-rule="evenodd"/><path d="M92.57,14.09h2.813V34.427H92.57Z" transform="translate(-80.916 -14.09)" fill="rgba(53,79,84,0.5)" fill-rule="evenodd"/><path d="M103.64,14.09h2.813V34.427H103.64Z" transform="translate(-86.153 -14.09)" fill="rgba(53,79,84,0.5)" fill-rule="evenodd"/><g transform="translate(39.136)"><path d="M144.73,14.09h2.813V34.427H144.73Z" transform="translate(-144.73 -14.09)" fill="rgba(53,79,84,0.5)" fill-rule="evenodd"/><path d="M155.79,14.09H158.6V34.427H155.79Z" transform="translate(-149.963 -14.09)" fill="rgba(53,79,84,0.5)" fill-rule="evenodd"/><path d="M166.86,14.09h2.813V34.427H166.86Z" transform="translate(-155.2 -14.09)" fill="rgba(53,79,84,0.5)" fill-rule="evenodd"/><path d="M177.92,14.09h2.813V34.427H177.92Z" transform="translate(-160.433 -14.09)" fill="rgba(53,79,84,0.5)" fill-rule="evenodd"/></g><g transform="translate(78.066)"><path d="M218.62,14.09h2.814V34.427H218.62Z" transform="translate(-218.62 -14.09)" fill="rgba(53,79,84,0.5)" fill-rule="evenodd"/><path d="M229.68,14.09h2.813V34.427H229.68Z" transform="translate(-223.853 -14.09)" fill="rgba(53,79,84,0.5)" fill-rule="evenodd"/><path d="M240.74,14.09h2.813V34.427H240.74Z" transform="translate(-229.086 -14.09)" fill="rgba(53,79,84,0.5)" fill-rule="evenodd"/><path d="M251.8,14.09h2.814V34.427H251.8Z" transform="translate(-234.318 -14.09)" fill="rgba(53,79,84,0.5)" fill-rule="evenodd"/></g></g><path d="M443.152,40.746a54.945,54.945,0,0,1,12.956,1.5,21.546,21.546,0,0,1,35.369,15.074c.005.132.016.263.021.4l.011.279c.011.242.016.49.016.738s-.005.464-.016.685c0,.126-.005.248-.011.374l-.011.169c-.016.274-.037.548-.063.817l-.021.248-.021.184c-1.833,14.631-20.98-2.229-29.067-2.229a15.391,15.391,0,0,1-15.39-15.39c0-.49.026-.975.068-1.454q-1.889-.071-3.841-.068c-1.3,0-2.587.021-3.846.068.047.479.068.964.068,1.454a15.387,15.387,0,0,1-15.385,15.39c-7.524,0-25.237,13.936-28.656,4.642a21.665,21.665,0,0,1-.553-4.889,26.245,26.245,0,0,1,4.831-13.593,21.54,21.54,0,0,1,30.58-2.893,54.958,54.958,0,0,1,12.961-1.5Z" transform="translate(-217.52 -17.722)" fill="#fefefe" fill-rule="evenodd"/><g transform="translate(148.372 3.229)"><path d="M339.95,89.8c6.96.084,13.946.274,20.922.627,6.96.353,13.946.8,20.933,1.175.416,6.992,1.3,13.967,2.376,20.948a202,202,0,0,1,2.218,20.943c-5.98-1.712-11.913-3.641-17.9-5.19a94.5,94.5,0,0,0-17.877-2.719,70.147,70.147,0,0,0-5.142-17.893A78.865,78.865,0,0,1,339.95,89.8Z" transform="translate(-339.95 -45.843)" fill="rgba(53,79,84,0.5)" stroke="rgba(53,79,84,0.5)" stroke-miterlimit="22.926" stroke-width="0.97" fill-rule="evenodd"/><path d="M349.82,97.59c10.717.448,21.438,1.207,32.16,2.076.638,5.3,1.528,10.6,2.492,15.88s1.776,10.569,2.35,15.854a227.529,227.529,0,0,0-27.85-6.012A99.675,99.675,0,0,0,354.5,111.5,119.347,119.347,0,0,1,349.82,97.59Z" transform="translate(-344.62 -49.528)" fill="rgba(56,179,219,0.5)" fill-rule="evenodd"/><g transform="translate(10.774 52.25)"><path d="M360.4,105.54c1.033.047,2.076.1,3.119.174.98,3.372,2.107,6.728,3.277,10.105,1.164,3.356,2.25,6.733,3.151,10.095-.927-.132-1.87-.253-2.782-.369-.954-3.33-2.107-6.675-3.33-10s-2.418-6.67-3.435-10.005Z" transform="translate(-360.4 -105.54)" fill="rgba(53,79,84,0.5)" fill-rule="evenodd"/><path d="M372.69,106.32c1.033.09,2.076.169,3.124.269.875,3.456,1.87,6.913,2.908,10.369s2.013,6.918,2.824,10.369c-.943-.19-1.87-.369-2.8-.553-.859-3.409-1.881-6.818-2.977-10.221s-2.165-6.818-3.082-10.232Z" transform="translate(-366.215 -105.909)" fill="rgba(53,79,84,0.5)" fill-rule="evenodd"/><path d="M384.99,107.42c1.027.1,2.076.195,3.119.306.759,3.572,1.644,7.139,2.561,10.706s1.76,7.123,2.466,10.685c-.927-.216-1.865-.437-2.792-.632-.759-3.509-1.654-7.034-2.629-10.527-.975-3.509-1.918-7.023-2.724-10.537Z" transform="translate(-372.034 -106.429)" fill="rgba(53,79,84,0.5)" fill-rule="evenodd"/><path d="M397.28,108.67c1.043.111,2.076.221,3.119.327.653,3.688,1.423,7.376,2.208,11.059s1.517,7.366,2.129,11.048c-.938-.216-1.865-.443-2.782-.669-.664-3.625-1.449-7.255-2.3-10.88s-1.66-7.25-2.376-10.885Z" transform="translate(-377.849 -107.021)" fill="rgba(53,79,84,0.5)" fill-rule="evenodd"/></g><path d="M424.27,93.21c6.97.274,13.957.474,20.917.4,6.976-.074,13.962-.4,20.948-.7-.158,7.028-.516,14.052-.954,21.075s-.769,14.052-.9,21.064c-5.969,1.375-11.923,2.734-17.9,2.856-5.959.121-11.923-1.027-17.877-2.35-.316-7.05-1.054-14.11-2.039-21.17s-1.8-14.115-2.192-21.175Z" transform="translate(-379.844 -47.314)" fill="rgba(53,79,84,0.5)" stroke="rgba(53,79,84,0.5)" stroke-miterlimit="22.926" stroke-width="0.97" fill-rule="evenodd"/><path d="M433.61,102.821c10.711.364,21.428.216,32.15-.311q-.2,8.306-.532,16.617c-.227,5.527-.422,11.054-.537,16.586a98.322,98.322,0,0,1-27.856.453c-.379-5.558-.917-11.112-1.565-16.67S434.031,108.374,433.61,102.821Z" transform="translate(-384.263 -51.856)" fill="rgba(56,179,219,0.5)" fill-rule="evenodd"/><g transform="translate(54.273 55.77)"><path d="M442.96,112.72c1.027.053,2.076.105,3.119.126.263,4.052.574,8.093.885,12.134s.6,8.082.838,12.129c-.927-.074-1.855-.184-2.782-.3-.285-4-.632-8.03-1.006-12.044S443.271,116.735,442.96,112.72Z" transform="translate(-442.96 -112.457)" fill="rgba(53,79,84,0.5)" fill-rule="evenodd"/><path d="M455.25,113.126c1.033-.011,2.06,0,3.119.005q.237,6.125.522,12.229c.19,4.062.369,8.14.511,12.208-.938-.026-1.865-.053-2.782-.068-.195-4.052-.416-8.124-.664-12.181s-.5-8.124-.706-12.192Z" transform="translate(-448.775 -112.646)" fill="rgba(53,79,84,0.5)" fill-rule="evenodd"/><path d="M467.54,112.95c1.033-.011,2.076-.053,3.135-.1.037,4.062.111,8.124.169,12.165s.121,8.109.158,12.16c-.938.084-1.865.163-2.792.195-.095-4.062-.211-8.14-.327-12.2s-.237-8.14-.342-12.218Z" transform="translate(-454.59 -112.518)" fill="rgba(53,79,84,0.5)" fill-rule="evenodd"/><path d="M479.811,112.389c1.033-.053,2.081-.105,3.124-.169q-.079,6.006-.169,12t-.2,12c-.922.137-1.865.253-2.777.364,0-4.025.005-8.066.011-12.092s0-8.056.011-12.1Z" transform="translate(-460.385 -112.22)" fill="rgba(53,79,84,0.5)" fill-rule="evenodd"/></g><path d="M506.2,91.333c6.976-.348,13.962-.706,20.922-1s13.973-.448,20.959-.537a95.127,95.127,0,0,1-4.257,17.893,85.646,85.646,0,0,0-4.009,17.893,104.2,104.2,0,0,0-17.919,2.582c-5.985,1.438-11.918,3.246-17.877,4.884.158-6.949.558-13.9,1.075-20.854s.927-13.915,1.106-20.864Z" transform="translate(-417.576 -45.843)" fill="rgba(53,79,84,0.5)" stroke="rgba(53,79,84,0.5)" stroke-miterlimit="22.926" stroke-width="0.97" fill-rule="evenodd"/><path d="M514.546,99.412c10.706-.759,21.428-1.4,32.16-1.8a142.37,142.37,0,0,1-3.551,13.9,120.735,120.735,0,0,0-3.409,13.894,244.4,244.4,0,0,0-27.866,5.627c.316-5.263.769-10.537,1.307-15.806.532-5.253,1.017-10.537,1.359-15.817Z" transform="translate(-421.295 -49.538)" fill="rgba(56,179,219,0.5)" fill-rule="evenodd"/><g transform="translate(94.931 52.24)"><path d="M522.733,108.58c1.027-.095,2.06-.195,3.119-.29-.443,3.62-.954,7.244-1.486,10.854s-1.033,7.239-1.465,10.848c-.927.205-1.855.416-2.771.622.369-3.662.811-7.339,1.28-11.012s.927-7.35,1.322-11.022Z" transform="translate(-520.13 -106.831)" fill="rgba(53,79,84,0.5)" fill-rule="evenodd"/><path d="M534.393,107.464c1.033-.09,2.076-.179,3.119-.274-.548,3.509-1.18,7.018-1.839,10.527-.659,3.493-1.27,7-1.791,10.511-.938.19-1.865.379-2.792.58.469-3.551,1.033-7.113,1.633-10.669S533.9,111.026,534.393,107.464Z" transform="translate(-525.315 -106.31)" fill="rgba(53,79,84,0.5)" fill-rule="evenodd"/><path d="M546.049,106.467q1.549-.126,3.124-.237c-.653,3.419-1.407,6.823-2.2,10.232s-1.512,6.807-2.139,10.216c-.927.163-1.87.332-2.8.506.574-3.451,1.259-6.9,1.986-10.358s1.412-6.907,2.023-10.358Z" transform="translate(-530.496 -105.856)" fill="rgba(53,79,84,0.5)" fill-rule="evenodd"/><path d="M557.725,105.678c1.027-.058,2.076-.111,3.119-.158-.759,3.34-1.633,6.681-2.545,10.011s-1.765,6.67-2.5,9.995c-.927.116-1.865.227-2.782.342.669-3.361,1.459-6.733,2.313-10.095s1.67-6.723,2.392-10.095Z" transform="translate(-535.691 -105.52)" fill="rgba(53,79,84,0.5)" fill-rule="evenodd"/></g><path d="M350.619,14.713A164.844,164.844,0,0,0,368.5,13.138c5.969-.885,11.923-1.992,17.9-3a195.976,195.976,0,0,1-2.26,20.954A203.834,203.834,0,0,0,381.8,52.037c-6.986-.316-13.973-.7-20.933-1.006-6.976-.3-13.962-.453-20.922-.522a74.527,74.527,0,0,1,5.458-17.893,69.112,69.112,0,0,0,5.211-17.9Z" transform="translate(-339.95 -8.153)" fill="rgba(53,79,84,0.5)" stroke="rgba(53,79,84,0.5)" stroke-miterlimit="22.926" stroke-width="0.97" fill-rule="evenodd"/><path d="M358.91,23.465c9.283-.706,18.556-1.891,27.85-3.235-.558,5.3-1.407,10.59-2.4,15.875s-1.849,10.574-2.476,15.859q-16.106-.45-32.192-.706a109.917,109.917,0,0,1,4.689-13.888A95.86,95.86,0,0,0,358.91,23.465Z" transform="translate(-344.558 -12.927)" fill="rgba(56,179,219,0.5)" fill-rule="evenodd"/><g transform="translate(10.685 12.345)"><path d="M367.069,33.4c.927-.068,1.855-.137,2.8-.2-.927,3.372-2.028,6.76-3.214,10.116s-2.313,6.733-3.293,10.1c-1.043-.011-2.086,0-3.13,0,1.027-3.33,2.223-6.665,3.472-10S366.1,36.735,367.069,33.4Z" transform="translate(-360.23 -31.409)" fill="rgba(53,79,84,0.5)" fill-rule="evenodd"/><path d="M378.668,32.514c.927-.084,1.865-.184,2.792-.274-.822,3.462-1.8,6.939-2.861,10.39s-2.06,6.9-2.924,10.358c-1.059-.011-2.1,0-3.135-.011.917-3.409,1.992-6.818,3.109-10.232,1.112-3.393,2.155-6.823,3.019-10.232Z" transform="translate(-366.054 -30.954)" fill="rgba(53,79,84,0.5)" fill-rule="evenodd"/><path d="M390.272,31.386c.911-.1,1.855-.205,2.792-.316-.732,3.572-1.591,7.155-2.518,10.717s-1.818,7.129-2.576,10.69c-1.043-.005-2.1-.016-3.13-.016.806-3.509,1.76-7.023,2.756-10.532s1.9-7.023,2.676-10.543Z" transform="translate(-371.874 -30.401)" fill="rgba(53,79,84,0.5)" fill-rule="evenodd"/><path d="M401.881,30.127c.927-.111,1.839-.221,2.777-.327-.611,3.688-1.359,7.376-2.165,11.064s-1.554,7.371-2.218,11.048c-1.043-.005-2.076-.005-3.124-.016.722-3.625,1.544-7.25,2.4-10.875s1.66-7.26,2.329-10.9Z" transform="translate(-377.698 -29.8)" fill="rgba(53,79,84,0.5)" fill-rule="evenodd"/></g><path d="M428.51,8.008A134.764,134.764,0,0,1,446.387,6.37a129.126,129.126,0,0,1,17.9,1.549c.142,7.034.464,14.057.885,21.08s.8,14.052.969,21.075c-6.986.263-13.962.532-20.933.606s-13.946-.079-20.922-.306c.342-7.06,1.138-14.12,2.144-21.175S428.194,15.079,428.51,8.008Z" transform="translate(-379.854 -6.369)" fill="rgba(53,79,84,0.5)" stroke="rgba(53,79,84,0.5)" stroke-miterlimit="22.926" stroke-width="0.97" fill-rule="evenodd"/><path d="M436.8,17.1a174.984,174.984,0,0,1,27.856-.1q.2,8.306.511,16.6c.2,5.532.4,11.07.548,16.6-10.722.2-21.454.327-32.176.242.406-5.543.991-11.112,1.66-16.654C435.864,28.223,436.422,22.659,436.8,17.1Z" transform="translate(-384.23 -11.157)" fill="rgba(56,179,219,0.5)" fill-rule="evenodd"/><g transform="translate(54.231 9.953)"><path d="M444.982,25.9c.927-.068,1.855-.121,2.782-.184-.248,4.052-.548,8.1-.875,12.144s-.627,8.087-.89,12.129c-1.054.011-2.086.011-3.119.011q.474-6.014,1.059-12.039c.39-4.015.759-8.045,1.043-12.06Z" transform="translate(-442.88 -25.478)" fill="rgba(53,79,84,0.5)" fill-rule="evenodd"/><path d="M456.582,25.38c.917-.042,1.844-.068,2.782-.09-.158,4.078-.337,8.166-.537,12.229s-.374,8.145-.532,12.218c-1.043,0-2.076.005-3.124.026q.316-6.093.706-12.181c.263-4.062.511-8.14.706-12.2Z" transform="translate(-448.695 -25.274)" fill="rgba(53,79,84,0.5)" fill-rule="evenodd"/><path d="M468.185,25.26c.927.016,1.855.026,2.792.042-.053,4.062-.116,8.13-.184,12.176s-.132,8.109-.179,12.16c-1.048.021-2.092.047-3.124.047.095-4.073.221-8.14.353-12.208s.248-8.151.342-12.218Z" transform="translate(-454.524 -25.26)" fill="rgba(53,79,84,0.5)" fill-rule="evenodd"/><path d="M479.786,25.57c.911.042,1.855.105,2.777.169.053,4.009.116,8.024.174,12.013s.116,8,.179,12c-1.054.011-2.1.011-3.13.021,0-4.036-.01-8.066,0-12.092s0-8.077,0-12.107Z" transform="translate(-460.339 -25.407)" fill="rgba(53,79,84,0.5)" fill-rule="evenodd"/></g><path d="M504.02,9.93c5.959,1.017,11.913,2.16,17.877,3.072a155.157,155.157,0,0,0,17.919,1.612,86.3,86.3,0,0,0,4.02,17.9,94.225,94.225,0,0,1,4.257,17.893q-10.479.1-20.959.443c-6.96.237-13.946.532-20.917.817-.195-6.955-.627-13.9-1.138-20.864s-.9-13.9-1.059-20.875Z" transform="translate(-417.576 -8.054)" fill="rgba(53,79,84,0.5)" stroke="rgba(53,79,84,0.5)" stroke-miterlimit="22.926" stroke-width="0.97" fill-rule="evenodd"/><path d="M511.91,20.01c9.283,1.4,18.567,2.619,27.85,3.351a119.934,119.934,0,0,0,3.425,13.9,141.528,141.528,0,0,1,3.551,13.9q-16.106.142-32.192.469c-.353-5.263-.822-10.543-1.344-15.806s-.98-10.543-1.291-15.817Z" transform="translate(-421.309 -12.823)" fill="rgba(56,179,219,0.5)" fill-rule="evenodd"/><g transform="translate(94.931 12.234)"><path d="M520.13,29.59c.927.121,1.844.227,2.782.348.422,3.614.917,7.25,1.454,10.854q.8,5.429,1.486,10.854c-1.059,0-2.092,0-3.119-.011-.4-3.672-.848-7.345-1.322-11.012s-.9-7.36-1.28-11.033Z" transform="translate(-520.13 -29.59)" fill="rgba(53,79,84,0.5)" fill-rule="evenodd"/><path d="M531.11,30.95c.917.111,1.855.216,2.782.316.522,3.519,1.138,7.039,1.791,10.532s1.307,7.007,1.855,10.516c-1.043,0-2.1-.011-3.135-.011-.5-3.551-1.075-7.113-1.67-10.674S531.584,34.5,531.11,30.95Z" transform="translate(-525.325 -30.233)" fill="rgba(53,79,84,0.5)" fill-rule="evenodd"/><path d="M542.07,32.17c.927.1,1.855.19,2.792.29.616,3.409,1.349,6.828,2.129,10.232s1.554,6.818,2.208,10.216c-1.043-.011-2.086-.011-3.135-.011-.6-3.451-1.3-6.9-2.023-10.358C543.319,39.1,542.644,35.632,542.07,32.17Z" transform="translate(-530.51 -30.811)" fill="rgba(53,79,84,0.5)" fill-rule="evenodd"/><path d="M553.02,33.19c.927.068,1.87.137,2.8.2.717,3.34,1.581,6.686,2.492,10.011s1.791,6.675,2.561,10.011c-1.059-.011-2.1-.011-3.135-.021-.717-3.361-1.533-6.733-2.387-10.095S553.7,36.562,553.02,33.19Z" transform="translate(-535.691 -31.293)" fill="rgba(53,79,84,0.5)" fill-rule="evenodd"/></g></g></g></g><path d="M130.047,26.12a16.768,16.768,0,1,1-16.77,16.77,16.765,16.765,0,0,1,16.77-16.77Zm-53.656,0A16.768,16.768,0,1,1,59.62,42.89,16.77,16.77,0,0,1,76.39,26.12Z" transform="translate(349.792 183.642)" fill="none" fill-rule="evenodd"/><path d="M134.057,7.94a31.969,31.969,0,0,1,6.612.669l2.645,6.486a46.412,46.412,0,0,0-18.514,0l2.645-6.486A31.969,31.969,0,0,1,134.057,7.94Z" transform="translate(318.953 192.243)" fill="#213336" fill-rule="evenodd"/><path d="M79.551,33.9A13.264,13.264,0,1,1,66.29,47.161,13.263,13.263,0,0,1,79.551,33.9Z" transform="translate(346.636 179.961)" fill-rule="evenodd" fill="url(#c)"/><path d="M73.295,34.56A5.182,5.182,0,0,1,76.54,35.7,17.791,17.791,0,0,0,69.4,43.18a5.189,5.189,0,0,1,3.9-8.62Z" transform="translate(345.78 179.649)" fill-rule="evenodd" fill="url(#d)"/><path d="M87.708,51.14a4.181,4.181,0,1,1-4.178,4.178A4.182,4.182,0,0,1,87.708,51.14Z" transform="translate(338.479 171.804)" fill-rule="evenodd" fill="url(#d)"/><path d="M181.377,33.9A13.264,13.264,0,1,1,168.11,47.161,13.262,13.262,0,0,1,181.377,33.9Z" transform="translate(298.462 179.961)" fill-rule="evenodd" fill="url(#c)"/><path d="M175.12,34.56A5.186,5.186,0,0,1,178.37,35.7a17.759,17.759,0,0,0-7.144,7.482,5.189,5.189,0,0,1,3.894-8.62Z" transform="translate(297.601 179.649)" fill-rule="evenodd" fill="url(#d)"/><path d="M189.538,51.14a4.181,4.181,0,1,1-4.178,4.178A4.178,4.178,0,0,1,189.538,51.14Z" transform="translate(290.301 171.804)" fill-rule="evenodd" fill="url(#d)"/></g></g></g></svg>